<svg width="359" height="221" viewBox="0 0 359 221" fill="none" xmlns="http://www.w3.org/2000/svg">
<path d="M276.961 0H81.6374C69.9927 0 59.1555 5.92716 52.8463 15.7475L5.46809 89.4556C-1.8227 100.801 -1.8227 115.389 5.46809 126.735L52.8463 200.451C59.1555 210.263 69.9927 216.198 81.6295 216.198H276.961C288.598 216.198 299.443 210.271 305.744 200.451L353.122 126.735C360.413 115.389 360.413 100.801 353.122 89.4556L305.744 15.7396C299.443 5.92716 288.598 0 276.961 0Z" fill="url(#paint0_linear_1259_1689)"/>
<path opacity="0.4" d="M28.5909 53.4795C65.4407 48.7044 132.609 35.5153 184.713 0H81.6371C70.0004 0 59.1552 5.92716 52.854 15.7475L28.5989 53.4875L28.5909 53.4795Z" fill="white"/>
<path d="M98.0553 72.8021H50.0438C49.8221 72.8021 49.6479 72.6273 49.6479 72.4049V8.44554C49.6479 8.22307 49.8221 8.04828 50.0438 8.04828H84.2574C84.3524 8.04828 84.4474 8.08801 84.5266 8.15157L98.3165 20.6892C98.3957 20.7607 98.4432 20.8719 98.4432 20.9832V72.4049C98.4432 72.6273 98.269 72.8021 98.0474 72.8021H98.0553ZM50.4396 72.0076H97.6595V21.1659L84.107 8.85075H50.4396V72.0076Z" fill="#3863BE"/>
<path d="M98.0553 21.3807L84.2653 21.2933C84.0516 21.2933 83.8695 21.1105 83.8695 20.896V8.44581C83.8695 8.2869 83.9645 8.14389 84.107 8.08032C84.2495 8.01676 84.4157 8.0406 84.5345 8.15183L98.3244 20.6894C98.4432 20.8007 98.4907 20.9755 98.4273 21.1264C98.3719 21.2774 98.2215 21.3807 98.0553 21.3807ZM84.6611 20.5067L97.0262 20.5862L84.6611 9.34362V20.5067Z" fill="#3863BE"/>
<path d="M76.7529 31.6936H54.556C54.3343 31.6936 54.1602 31.5188 54.1602 31.2964C54.1602 31.0739 54.3343 30.8991 54.556 30.8991H76.7529C76.9745 30.8991 77.1487 31.0739 77.1487 31.2964C77.1487 31.5188 76.9745 31.6936 76.7529 31.6936Z" fill="#3863BE"/>
<path d="M76.7529 35.9602H54.556C54.3343 35.9602 54.1602 35.7854 54.1602 35.563C54.1602 35.3405 54.3343 35.1657 54.556 35.1657H76.7529C76.9745 35.1657 77.1487 35.3405 77.1487 35.563C77.1487 35.7854 76.9745 35.9602 76.7529 35.9602Z" fill="#3863BE"/>
<path d="M76.7529 40.2268H54.556C54.3343 40.2268 54.1602 40.052 54.1602 39.8296C54.1602 39.6071 54.3343 39.4323 54.556 39.4323H76.7529C76.9745 39.4323 77.1487 39.6071 77.1487 39.8296C77.1487 40.052 76.9745 40.2268 76.7529 40.2268Z" fill="#3863BE"/>
<path d="M76.7529 44.4935H54.556C54.3343 44.4935 54.1602 44.3187 54.1602 44.0962C54.1602 43.8738 54.3343 43.699 54.556 43.699H76.7529C76.9745 43.699 77.1487 43.8738 77.1487 44.0962C77.1487 44.3187 76.9745 44.4935 76.7529 44.4935Z" fill="#3863BE"/>
<path d="M76.7529 48.7601H54.556C54.3343 48.7601 54.1602 48.5853 54.1602 48.3628C54.1602 48.1404 54.3343 47.9656 54.556 47.9656H76.7529C76.9745 47.9656 77.1487 48.1404 77.1487 48.3628C77.1487 48.5853 76.9745 48.7601 76.7529 48.7601Z" fill="#3863BE"/>
<path d="M88.8487 31.6936H83.0857C82.8641 31.6936 82.6899 31.5188 82.6899 31.2964C82.6899 31.0739 82.8641 30.8991 83.0857 30.8991H88.8487C89.0704 30.8991 89.2445 31.0739 89.2445 31.2964C89.2445 31.5188 89.0704 31.6936 88.8487 31.6936Z" fill="#3863BE"/>
<path d="M88.8487 35.9602H83.0857C82.8641 35.9602 82.6899 35.7854 82.6899 35.563C82.6899 35.3405 82.8641 35.1657 83.0857 35.1657H88.8487C89.0704 35.1657 89.2445 35.3405 89.2445 35.563C89.2445 35.7854 89.0704 35.9602 88.8487 35.9602Z" fill="#3863BE"/>
<path d="M88.8487 40.2268H83.0857C82.8641 40.2268 82.6899 40.052 82.6899 39.8296C82.6899 39.6071 82.8641 39.4323 83.0857 39.4323H88.8487C89.0704 39.4323 89.2445 39.6071 89.2445 39.8296C89.2445 40.052 89.0704 40.2268 88.8487 40.2268Z" fill="#3863BE"/>
<path d="M88.8487 44.4935H83.0857C82.8641 44.4935 82.6899 44.3187 82.6899 44.0962C82.6899 43.8738 82.8641 43.699 83.0857 43.699H88.8487C89.0704 43.699 89.2445 43.8738 89.2445 44.0962C89.2445 44.3187 89.0704 44.4935 88.8487 44.4935Z" fill="#3863BE"/>
<path d="M88.8487 48.7601H83.0857C82.8641 48.7601 82.6899 48.5853 82.6899 48.3628C82.6899 48.1404 82.8641 47.9656 83.0857 47.9656H88.8487C89.0704 47.9656 89.2445 48.1404 89.2445 48.3628C89.2445 48.5853 89.0704 48.7601 88.8487 48.7601Z" fill="#3863BE"/>
<path d="M75.2171 18.0278H55.3396C54.9068 18.0278 54.5559 18.3799 54.5559 18.8144V21.0311C54.5559 21.4655 54.9068 21.8177 55.3396 21.8177H75.2171C75.6499 21.8177 76.0008 21.4655 76.0008 21.0311V18.8144C76.0008 18.3799 75.6499 18.0278 75.2171 18.0278Z" fill="#FACEAC"/>
<path d="M69.7154 61.1626H55.2288C54.8572 61.1626 54.5559 61.465 54.5559 61.8379V64.2771C54.5559 64.6501 54.8572 64.9525 55.2288 64.9525H69.7154C70.087 64.9525 70.3882 64.6501 70.3882 64.2771V61.8379C70.3882 61.465 70.087 61.1626 69.7154 61.1626Z" fill="#FACEAC"/>
<path d="M305.752 200.443L353.13 126.727C360.421 115.381 360.421 100.794 353.13 89.4477L327.972 50.3094L46.1886 190.09L52.8461 200.443C59.1553 210.255 69.9925 216.19 81.6293 216.19H276.961C288.597 216.19 299.442 210.263 305.744 200.443H305.752Z" fill="#FACEAC"/>
<path d="M89.3554 156.577L39.3649 177.187L39.0562 178.991L52.854 200.451C59.1632 210.263 70.0004 216.198 81.6372 216.198H88.1443C89.9571 198.504 89.3475 177.576 89.3475 177.576V156.585L89.3554 156.577Z" fill="#1B315F"/>
<path d="M77.03 75.7739C77.03 75.7739 68.3934 78.4752 64.4908 84.2991C60.5881 90.123 38.5416 128.88 35.478 137.135C32.4224 145.39 37.4808 147.933 37.4808 147.933L32.5253 159.795C32.5253 159.795 31.0292 161.456 29.1293 163.545L42.0168 183.599C58.1341 173.906 84.6374 161.916 84.6374 161.916L95.0788 153.129L97.3983 138.2C97.3983 138.2 108.156 125.177 108.37 121.467C108.584 117.765 106.256 79.7465 106.256 79.7465L77.0221 75.7739H77.03Z" fill="#3863BE"/>
<path d="M246.745 76.9339C246.745 76.9339 247.504 95.0332 240.768 100.73L257.051 105.918L255.017 76.9339H246.745Z" fill="#7D9FD6"/>
<path d="M294.986 86.7066C280.388 72.1429 273.62 65.89 273.62 65.89L275.401 63.2124L268.458 58.922L250.655 79.826L253.877 143.205V182.288L255.793 216.182H276.968C288.605 216.182 299.45 210.255 305.751 200.435L332.366 159.024C321.141 132.4 303.21 94.8981 294.986 86.6986V86.7066Z" fill="white"/>
<path d="M254.811 198.846V216.19H276.968C288.605 216.19 299.45 210.263 305.752 200.443L308.047 196.875C308.942 195.374 309.821 193.96 310.668 192.656C289.191 198.147 266.511 198.894 254.811 198.846Z" fill="#3863BE"/>
<path d="M123.458 114.459L66.5727 182.296H277.38L233.786 114.459H123.458Z" fill="#FFEDDE"/>
<path d="M186.21 111.4H172.388V120.831H186.21V111.4Z" fill="#1B315F"/>
<path d="M189.218 117.86H169.38C168.134 117.86 167.124 118.872 167.124 120.12C167.124 121.369 168.134 122.381 169.38 122.381H189.218C190.464 122.381 191.474 121.369 191.474 120.12C191.474 118.872 190.464 117.86 189.218 117.86Z" fill="#7D9FD6"/>
<path d="M217.724 52.5976H140.882C136.235 52.5976 132.467 56.3789 132.467 61.0434V105.791C132.467 110.456 136.235 114.237 140.882 114.237H217.724C222.372 114.237 226.139 110.456 226.139 105.791V61.0434C226.139 56.3789 222.372 52.5976 217.724 52.5976Z" fill="#3963BE"/>
<path d="M179.299 112.711C180.645 112.711 181.737 111.616 181.737 110.264C181.737 108.913 180.645 107.817 179.299 107.817C177.952 107.817 176.861 108.913 176.861 110.264C176.861 111.616 177.952 112.711 179.299 112.711Z" fill="#D3DEF1"/>
<path d="M132.467 61.0434V105.791C132.467 105.918 132.483 106.037 132.483 106.157H226.115C226.115 106.029 226.131 105.91 226.131 105.791V61.0434C226.131 59.1842 225.529 57.4759 224.516 56.0855H134.074C133.061 57.4759 132.459 59.1921 132.459 61.0434H132.467Z" fill="white"/>
<path d="M151.252 56.0855H134.082C133.068 57.4759 132.467 59.1921 132.467 61.0434V70.0533L151.252 56.0855Z" fill="#D3DEF1"/>
<path d="M151.949 70.4872L150.723 71.7176C150.414 72.0279 150.414 72.531 150.723 72.8412L155.358 77.4931C155.667 77.8033 156.168 77.8033 156.477 77.4931L157.703 76.2627C158.012 75.9524 158.012 75.4493 157.703 75.1391L153.068 70.4872C152.759 70.177 152.258 70.177 151.949 70.4872Z" fill="#3963BE"/>
<path d="M145.653 64.1706L144.427 65.401C144.118 65.7113 144.118 66.2144 144.427 66.5246L149.062 71.1765C149.371 71.4867 149.872 71.4867 150.182 71.1765L151.407 69.9461C151.717 69.6358 151.717 69.1327 151.407 68.8225L146.773 64.1706C146.464 63.8604 145.962 63.8604 145.653 64.1706Z" fill="#D3DEF1"/>
<path d="M147.152 64.8554L145.092 66.9229C144.573 67.4442 144.573 68.2893 145.092 68.8106L152.878 76.6254C153.398 77.1467 154.24 77.1467 154.759 76.6254L156.819 74.558C157.338 74.0367 157.338 73.1915 156.819 72.6703L149.033 64.8554C148.513 64.3342 147.671 64.3342 147.152 64.8554Z" fill="#7D9FD6"/>
<path d="M156.591 72.1598L152.382 76.3847C152.128 76.6391 152.128 77.0516 152.382 77.306L153.261 78.1881C153.514 78.4425 153.925 78.4425 154.179 78.1881L158.388 73.9632C158.641 73.7088 158.641 73.2963 158.388 73.0419L157.509 72.1598C157.256 71.9054 156.845 71.9054 156.591 72.1598Z" fill="#7D9FD6"/>
<path d="M148.204 74.3993C149.568 74.3993 150.674 73.2895 150.674 71.9204C150.674 70.5513 149.568 69.4415 148.204 69.4415C146.84 69.4415 145.734 70.5513 145.734 71.9204C145.734 73.2895 146.84 74.3993 148.204 74.3993Z" fill="#3963BE"/>
<path d="M148.204 73.5969C149.127 73.5969 149.875 72.8463 149.875 71.9205C149.875 70.9946 149.127 70.244 148.204 70.244C147.282 70.244 146.534 70.9946 146.534 71.9205C146.534 72.8463 147.282 73.5969 148.204 73.5969Z" fill="#D3DEF1"/>
<path d="M158.59 83.5046H153.286V88.4625H158.59V83.5046Z" fill="#7D9FD6"/>
<path d="M160.458 87.5646H151.41V88.7485H160.458V87.5646Z" fill="#7D9FD6"/>
<path d="M162.01 88.4624H149.867V89.9243H162.01V88.4624Z" fill="#3963BE"/>
<path d="M156.326 82.5988C155.25 83.4172 153.92 83.9018 152.471 83.9018C148.94 83.9018 146.067 81.0177 146.067 77.4741C146.067 75.5355 146.93 73.7955 148.291 72.6116L147.041 71.0623C145.228 72.6116 144.08 74.9078 144.08 77.4741C144.08 82.1221 147.848 85.8961 152.471 85.8961C154.395 85.8961 156.16 85.2446 157.577 84.1482L156.326 82.5988Z" fill="#D3DEF1"/>
<path d="M162.802 80.7158H149.067C148.59 80.7158 148.204 81.1036 148.204 81.5819C148.204 82.0602 148.59 82.4479 149.067 82.4479H162.802C163.278 82.4479 163.664 82.0602 163.664 81.5819C163.664 81.1036 163.278 80.7158 162.802 80.7158Z" fill="#D3DEF1"/>
<path d="M162.588 82.4479H149.289V84.5693H162.588V82.4479Z" fill="#7D9FD6"/>
<path d="M179.315 73.6049C182.812 73.6049 185.648 70.7592 185.648 67.2487C185.648 63.7383 182.812 60.8925 179.315 60.8925C175.817 60.8925 172.982 63.7383 172.982 67.2487C172.982 70.7592 175.817 73.6049 179.315 73.6049Z" fill="#D3DEF1"/>
<path d="M185.363 70.1645C186.46 70.1645 187.35 69.2717 187.35 68.1703C187.35 67.0689 186.46 66.176 185.363 66.176C184.265 66.176 183.376 67.0689 183.376 68.1703C183.376 69.2717 184.265 70.1645 185.363 70.1645Z" fill="#7D9FD6"/>
<path d="M180.296 69.9342C181.232 69.9342 181.99 69.173 181.99 68.2339C181.99 67.2949 181.232 66.5336 180.296 66.5336C179.361 66.5336 178.602 67.2949 178.602 68.2339C178.602 69.173 179.361 69.9342 180.296 69.9342Z" fill="#7D9FD6"/>
<path d="M178.753 63.5144C179.61 63.5144 180.304 62.8172 180.304 61.9571C180.304 61.0971 179.61 60.3998 178.753 60.3998C177.896 60.3998 177.201 61.0971 177.201 61.9571C177.201 62.8172 177.896 63.5144 178.753 63.5144Z" fill="#7D9FD6"/>
<path d="M173.591 69.2906C174.448 69.2906 175.143 68.5934 175.143 67.7333C175.143 66.8732 174.448 66.176 173.591 66.176C172.734 66.176 172.04 66.8732 172.04 67.7333C172.04 68.5934 172.734 69.2906 173.591 69.2906Z" fill="#7D9FD6"/>
<path d="M177.573 74.7251C178.43 74.7251 179.125 74.0279 179.125 73.1679C179.125 72.3078 178.43 71.6106 177.573 71.6106C176.716 71.6106 176.022 72.3078 176.022 73.1679C176.022 74.0279 176.716 74.7251 177.573 74.7251Z" fill="#7D9FD6"/>
<path d="M168.382 93.7064H141.76C141.175 93.7064 140.7 94.183 140.7 94.771C140.7 95.359 141.175 95.8357 141.76 95.8357H168.382C168.968 95.8357 169.443 95.359 169.443 94.771C169.443 94.183 168.968 93.7064 168.382 93.7064Z" fill="#D3DEF1"/>
<path d="M187.215 78.5865H173.021C172.436 78.5865 171.961 79.0632 171.961 79.6511C171.961 80.2391 172.436 80.7158 173.021 80.7158H187.215C187.801 80.7158 188.276 80.2391 188.276 79.6511C188.276 79.0632 187.801 78.5865 187.215 78.5865Z" fill="#D3DEF1"/>
<path d="M168.382 98.696H141.76C141.175 98.696 140.7 99.1726 140.7 99.7606C140.7 100.349 141.175 100.825 141.76 100.825H168.382C168.968 100.825 169.443 100.349 169.443 99.7606C169.443 99.1726 168.968 98.696 168.382 98.696Z" fill="#D3DEF1"/>
<path d="M209.974 78.3006C214.634 78.3006 218.413 74.5086 218.413 69.8309C218.413 65.1533 214.634 61.3613 209.974 61.3613C205.313 61.3613 201.535 65.1533 201.535 69.8309C201.535 74.5086 205.313 78.3006 209.974 78.3006Z" fill="#D3DEF1"/>
<path d="M216.537 67.646C218.001 67.646 219.188 66.4543 219.188 64.9843C219.188 63.5143 218.001 62.3226 216.537 62.3226C215.072 62.3226 213.885 63.5143 213.885 64.9843C213.885 66.4543 215.072 67.646 216.537 67.646Z" fill="#7D9FD6"/>
<path d="M211.818 72.1032C213.069 72.1032 214.082 71.0858 214.082 69.8308C214.082 68.5758 213.069 67.5585 211.818 67.5585C210.568 67.5585 209.554 68.5758 209.554 69.8308C209.554 71.0858 210.568 72.1032 211.818 72.1032Z" fill="#7D9FD6"/>
<path d="M204.48 67.4472C205.621 67.4472 206.546 66.5188 206.546 65.3735C206.546 64.2282 205.621 63.2998 204.48 63.2998C203.339 63.2998 202.414 64.2282 202.414 65.3735C202.414 66.5188 203.339 67.4472 204.48 67.4472Z" fill="#7D9FD6"/>
<path d="M205.034 77.7761C206.175 77.7761 207.1 76.8477 207.1 75.7024C207.1 74.5571 206.175 73.6287 205.034 73.6287C203.893 73.6287 202.968 74.5571 202.968 75.7024C202.968 76.8477 203.893 77.7761 205.034 77.7761Z" fill="#7D9FD6"/>
<path d="M213.892 79.1348C215.034 79.1348 215.959 78.2064 215.959 77.0611C215.959 75.9158 215.034 74.9874 213.892 74.9874C212.751 74.9874 211.826 75.9158 211.826 77.0611C211.826 78.2064 212.751 79.1348 213.892 79.1348Z" fill="#7D9FD6"/>
<path d="M206.61 106.164H226.115C226.115 106.037 226.131 105.918 226.131 105.799V88.1605L206.61 106.164Z" fill="#D3DEF1"/>
<path d="M184.389 88.1605H179.077C177.822 88.1605 176.805 89.1814 176.805 90.4408V98.5529C176.805 99.8123 177.822 100.833 179.077 100.833H184.389C185.644 100.833 186.661 99.8123 186.661 98.5529V90.4408C186.661 89.1814 185.644 88.1605 184.389 88.1605Z" fill="#D3DEF1"/>
<path d="M186.645 87.5646H176.829C176.418 87.5646 176.085 87.899 176.085 88.3115V90.6156C176.085 91.0281 176.418 91.3625 176.829 91.3625H186.645C187.056 91.3625 187.389 91.0281 187.389 90.6156V88.3115C187.389 87.899 187.056 87.5646 186.645 87.5646Z" fill="#7D9FD6"/>
<path d="M177.597 90.862C177.486 90.862 177.399 90.7746 177.399 90.6633V88.2639C177.399 88.1526 177.486 88.0652 177.597 88.0652C177.708 88.0652 177.795 88.1526 177.795 88.2639V90.6633C177.795 90.7746 177.708 90.862 177.597 90.862Z" fill="white"/>
<path d="M179.061 90.862C178.951 90.862 178.863 90.7746 178.863 90.6633V88.2639C178.863 88.1526 178.951 88.0652 179.061 88.0652C179.172 88.0652 179.259 88.1526 179.259 88.2639V90.6633C179.259 90.7746 179.172 90.862 179.061 90.862Z" fill="white"/>
<path d="M180.526 90.862C180.415 90.862 180.328 90.7746 180.328 90.6633V88.2639C180.328 88.1526 180.415 88.0652 180.526 88.0652C180.637 88.0652 180.724 88.1526 180.724 88.2639V90.6633C180.724 90.7746 180.637 90.862 180.526 90.862Z" fill="white"/>
<path opacity="0.5" d="M186.669 98.5529V94.6915C185.378 97.0989 182.829 100.078 178.024 100.555C178.341 100.722 178.697 100.825 179.077 100.825H184.397C185.648 100.825 186.669 99.8083 186.669 98.545V98.5529Z" fill="white"/>
<path d="M199.398 88.1605H194.086C192.831 88.1605 191.814 89.1814 191.814 90.4408V98.5529C191.814 99.8123 192.831 100.833 194.086 100.833H199.398C200.653 100.833 201.67 99.8123 201.67 98.5529V90.4408C201.67 89.1814 200.653 88.1605 199.398 88.1605Z" fill="#D3DEF1"/>
<path d="M201.654 87.5646H191.838C191.427 87.5646 191.094 87.899 191.094 88.3115V90.6156C191.094 91.0281 191.427 91.3625 191.838 91.3625H201.654C202.065 91.3625 202.398 91.0281 202.398 90.6156V88.3115C202.398 87.899 202.065 87.5646 201.654 87.5646Z" fill="#7D9FD6"/>
<path d="M192.606 90.862C192.495 90.862 192.408 90.7746 192.408 90.6633V88.2639C192.408 88.1526 192.495 88.0652 192.606 88.0652C192.717 88.0652 192.804 88.1526 192.804 88.2639V90.6633C192.804 90.7746 192.717 90.862 192.606 90.862Z" fill="white"/>
<path d="M194.07 90.862C193.96 90.862 193.872 90.7746 193.872 90.6633V88.2639C193.872 88.1526 193.96 88.0652 194.07 88.0652C194.181 88.0652 194.268 88.1526 194.268 88.2639V90.6633C194.268 90.7746 194.181 90.862 194.07 90.862Z" fill="white"/>
<path d="M195.535 90.862C195.424 90.862 195.337 90.7746 195.337 90.6633V88.2639C195.337 88.1526 195.424 88.0652 195.535 88.0652C195.646 88.0652 195.733 88.1526 195.733 88.2639V90.6633C195.733 90.7746 195.646 90.862 195.535 90.862Z" fill="white"/>
<path opacity="0.5" d="M201.67 98.5529V94.6915C200.38 97.0989 197.831 100.078 193.025 100.555C193.342 100.722 193.698 100.825 194.078 100.825H199.398C200.649 100.825 201.67 99.8083 201.67 98.545V98.5529Z" fill="white"/>
<path d="M122.667 125.257C122.667 125.257 138.064 128.65 138.681 128.65C139.298 128.65 141.681 126.695 142.607 126.584C143.534 126.473 152.732 126.075 153.247 126.584C153.761 127.092 152.938 128.856 150.666 129.373C152.938 130.096 153.041 130.096 152.938 131.756C152.835 133.417 150.46 133.727 150.46 133.727C150.46 133.727 148.188 140.258 147.46 140.567C146.732 140.877 138.032 139.948 138.032 139.948L112.851 133.417C112.851 133.417 118.55 124.351 122.667 125.257Z" fill="#D36318"/>
<path d="M117.434 124.208C116.389 122.635 114.165 121.189 114.165 121.189C114.165 121.189 115.732 119.091 115.732 118.432C115.732 117.773 114.165 87.5806 113.246 81.9394C112.328 76.2983 108.702 73.7955 108.702 73.7955L104.483 78.0065L104.262 79.4843L106.264 79.7545C106.264 79.7545 108.584 117.765 108.378 121.475C108.275 123.326 105.528 127.513 102.813 131.232L103.834 136.944C103.834 136.944 107.887 136.944 115.685 136.023C115.898 129.722 122.667 125.257 122.667 125.257L117.434 124.208Z" fill="#1B315F"/>
<path d="M108.394 129.532C108.275 129.532 108.156 129.476 108.077 129.373C107.943 129.198 107.982 128.952 108.156 128.816C114.394 124.145 113.793 121.316 113.785 121.284C113.737 121.078 113.856 120.855 114.07 120.8C114.283 120.744 114.489 120.863 114.553 121.07C114.592 121.205 115.384 124.383 108.631 129.444C108.56 129.5 108.481 129.524 108.394 129.524V129.532Z" fill="#3863BE"/>
<path d="M115.661 43.2778C115.661 43.2778 121.139 50.6351 120.949 52.2162C120.759 53.7974 120.205 54.7349 120.205 54.7349C120.205 54.7349 123.545 60.0423 123.45 60.7892C123.355 61.536 120.664 62.561 120.664 62.561C120.664 62.561 120.292 71.1339 119.548 72.1509C118.803 73.1679 112.027 72.9931 112.027 72.9931L100.517 98.7039L87.7088 74.5821L115.645 43.2858L115.661 43.2778Z" fill="#F29F61"/>
<path d="M115.661 38.3358C115.661 38.3358 118.748 39.0032 118.091 45.423C117.434 51.8428 113.017 59.5973 108.6 59.5973C109.265 67.1294 109.043 79.532 106.834 81.5263C104.626 83.5205 97.7862 83.298 92.4903 79.9769C87.1944 76.6558 77.0379 75.7659 77.0379 75.7659C77.0379 75.7659 76.373 62.4735 86.9727 62.9185C83.4421 52.7247 87.416 34.7843 115.669 38.3279L115.661 38.3358Z" fill="white"/>
<path d="M75.8742 132.336C75.8742 132.336 76.3491 134.728 77.5445 135.085C78.7398 135.443 116.563 132.336 116.563 132.336C116.563 132.336 127.329 126.242 130.187 126.6C133.045 126.957 137.098 126.361 137.216 129.826C141.982 130.541 144.959 129.961 145.196 130.85C145.433 131.74 144.84 139.511 144.602 140.464C144.365 141.418 129.474 145.486 128.881 145.128C128.287 144.771 117.45 141.664 117.45 141.664C117.45 141.664 73.8555 157.443 61.2372 156.371C48.6188 155.298 44.2016 134.736 44.2016 134.736C44.2016 134.736 50.8749 128.761 75.8821 132.344L75.8742 132.336Z" fill="#F29F61"/>
<path d="M75.5892 85.2049C75.5417 85.2049 75.4942 85.197 75.4467 85.1811C75.2409 85.1016 75.138 84.8712 75.2171 84.6646C77.1882 79.5002 80.8534 77.8794 81.0118 77.8079C81.2097 77.7205 81.4471 77.8079 81.5342 78.0144C81.6213 78.2131 81.5342 78.4514 81.3284 78.5388C81.2967 78.5547 77.8057 80.1199 75.9612 84.9427C75.8979 85.1016 75.7475 85.197 75.5892 85.197V85.2049Z" fill="#FEFFFF"/>
<path d="M86.4265 103.137C86.2444 103.137 86.0782 103.01 86.0386 102.827C86.0069 102.684 82.698 88.1367 78.0116 86.1901C73.2461 84.2117 66.7073 85.4432 66.644 85.4591C66.4302 85.4989 66.2244 85.3638 66.1769 85.1413C66.1373 84.9268 66.2719 84.7202 66.4936 84.6726C66.7706 84.6169 73.3252 83.3775 78.3124 85.4512C83.3787 87.5487 86.6719 102.033 86.8144 102.645C86.8619 102.859 86.7273 103.074 86.5135 103.121C86.4819 103.121 86.4581 103.129 86.4265 103.129V103.137Z" fill="#FEFFFF"/>
<path d="M79.7452 133.313C79.5314 133.313 79.3573 133.139 79.3494 132.924L78.6448 98.251C78.6448 98.0286 78.8111 97.8538 79.0327 97.8458C79.2465 97.8617 79.4285 98.0127 79.4365 98.2351L80.141 132.908C80.141 133.131 79.9748 133.305 79.7531 133.313H79.7452Z" fill="#FEFFFF"/>
<path d="M35.1218 138.216C32.8736 145.621 37.4887 147.941 37.4887 147.941L44.1937 134.728L35.1218 138.216Z" fill="#1B315F"/>
<path d="M140.731 142.721C135.348 142.721 129.633 141.354 129.633 138.827C129.633 136.301 135.348 134.934 140.731 134.934C146.114 134.934 151.83 136.301 151.83 138.827C151.83 141.354 146.114 142.721 140.731 142.721ZM140.731 135.729C134.66 135.729 130.424 137.366 130.424 138.827C130.424 140.289 134.66 141.926 140.731 141.926C146.803 141.926 151.038 140.289 151.038 138.827C151.038 137.366 146.803 135.729 140.731 135.729Z" fill="#FEFFFF"/>
<path d="M140.731 163.752C136.734 163.752 132.483 162.711 132.483 160.788L129.641 138.875C129.609 138.661 129.767 138.462 129.981 138.43C130.195 138.398 130.393 138.557 130.424 138.772L133.274 160.74C133.274 161.694 136.116 162.957 140.739 162.957C145.362 162.957 148.196 161.694 148.196 160.788C148.196 160.566 148.37 160.391 148.592 160.391C148.814 160.391 148.988 160.566 148.988 160.788C148.988 162.711 144.737 163.752 140.739 163.752H140.731Z" fill="#FEFFFF"/>
<path d="M148.592 161.185C148.592 161.185 148.56 161.185 148.545 161.185C148.331 161.154 148.173 160.955 148.204 160.74L151.054 138.772C151.086 138.557 151.276 138.398 151.497 138.43C151.711 138.462 151.869 138.661 151.838 138.875L148.988 160.844C148.964 161.042 148.79 161.193 148.592 161.193V161.185Z" fill="#FEFFFF"/>
<path d="M140.787 162.051C138.404 162.051 134.367 161.686 134.367 160.303C134.367 158.921 138.404 158.556 140.787 158.556C143.169 158.556 147.207 158.921 147.207 160.303C147.207 161.686 143.169 162.051 140.787 162.051ZM140.787 159.358C137.335 159.358 135.317 159.986 135.158 160.335C135.317 160.629 137.343 161.257 140.787 161.257C144.23 161.257 146.154 160.661 146.399 160.303C146.154 159.946 144.143 159.35 140.787 159.35V159.358Z" fill="#3863BE"/>
<path d="M143.779 161.654H143.082V153.939C143.082 152.787 142.148 151.858 141.008 151.858C139.868 151.858 138.934 152.795 138.934 153.939V161.654H138.238V153.939C138.238 152.406 139.481 151.158 141.008 151.158C142.536 151.158 143.779 152.406 143.779 153.939V161.654Z" fill="#3863BE"/>
<path d="M146.138 160.82L145.449 160.756L146.186 153.042C146.328 151.524 147.674 150.292 149.186 150.292V150.992C148.022 150.992 146.985 151.945 146.874 153.113L146.138 160.828V160.82Z" fill="#3863BE"/>
<path d="M135.491 160.82L134.755 153.105C134.644 151.937 133.607 150.984 132.443 150.984V150.284C133.955 150.284 135.301 151.516 135.443 153.034L136.179 160.748L135.491 160.812V160.82Z" fill="#3863BE"/>
<path d="M133.773 159.151C133.575 159.151 133.409 159.008 133.377 158.802L131.644 145.144C131.62 144.929 131.77 144.731 131.984 144.699C132.206 144.675 132.396 144.826 132.427 145.041L134.161 158.699C134.185 158.913 134.034 159.112 133.821 159.144C133.805 159.144 133.789 159.144 133.773 159.144V159.151Z" fill="#FEFFFF"/>
<path d="M147.302 155.099C147.302 155.099 147.27 155.099 147.254 155.099C147.041 155.076 146.882 154.877 146.906 154.654L148.196 143.73C148.22 143.515 148.418 143.356 148.64 143.38C148.853 143.404 149.012 143.603 148.988 143.825L147.698 154.75C147.674 154.948 147.5 155.099 147.302 155.099Z" fill="#FEFFFF"/>
<path d="M277.388 182.296H66.5727V220.878H277.388V182.296Z" fill="#F2994A"/>
<path d="M185.204 145.096L164.876 141.505C164.876 141.505 166.57 138.097 165.913 131.955C170.9 136.015 185.204 141.505 185.204 141.505V145.096Z" fill="#7D9FD6"/>
<path d="M190.476 139.32L165.921 131.955C165.921 131.955 168.834 135.546 166.673 139.98L184.642 143.285L190.476 139.32Z" fill="white"/>
<path d="M240.689 142.737L205.565 141.497C205.565 141.497 204.401 135.951 195.313 135.324C186.226 134.696 185.64 135.951 185.64 138.82C180.803 138.97 175.19 140.138 175 141.497C174.81 142.856 174.613 144.286 183.13 143.769C183.13 143.769 189.709 154.885 193.58 154.694C197.451 154.503 207.821 153.534 207.821 153.534L238.987 164.618L252.397 160.296L240.697 142.729L240.689 142.737Z" fill="#F29F61"/>
<path d="M257.218 143.769L240.681 142.737C240.681 142.737 244.528 154.932 238.971 164.626C238.971 164.626 264.35 174.597 273.082 173.429C273.81 173.334 276.201 154.233 276.201 154.233L257.218 143.777V143.769Z" fill="white"/>
<path d="M271.918 173.826C261.239 173.826 239.834 165.396 238.828 164.999L238.314 164.8L238.67 164.379C244.298 157.658 240.34 142.999 240.301 142.856L240.158 142.331L258.144 142.975L254.099 137.715L263.574 114.467C262.236 112.266 261.35 110.701 261.247 110.511L261.136 110.32L261.239 110.129C261.762 109.16 274.111 86.3172 282.795 86.3172C287.544 86.3172 292.46 90.7189 294.97 93.3408C299.53 98.108 303.013 104.091 302.894 106.959C302.799 109.382 298.208 125.154 292.302 141.147C287.125 155.195 279.929 172.205 275.061 173.493C274.182 173.723 273.113 173.834 271.926 173.834L271.918 173.826ZM239.62 164.451C243.364 165.897 266.978 174.804 274.855 172.714C278.346 171.784 284.433 160.176 291.558 140.861C297.432 124.931 301.999 109.287 302.102 106.911C302.213 104.273 298.754 98.4337 294.4 93.8811C291.978 91.3466 287.252 87.1038 282.803 87.1038C274.997 87.1038 263.281 108.063 262.054 110.304C263.052 112.052 270.667 125.217 275.931 129.762L275.417 130.366C271.728 127.18 267.057 120.092 264.105 115.301L255.025 137.58L259.822 143.817L241.219 143.15C241.892 145.851 244.52 157.944 239.636 164.451H239.62Z" fill="#7D9FD6"/>
<path d="M190.477 139.225H185.632C185.41 139.225 185.236 139.05 185.236 138.827C185.236 138.605 185.41 138.43 185.632 138.43H190.477C190.698 138.43 190.872 138.605 190.872 138.827C190.872 139.05 190.698 139.225 190.477 139.225Z" fill="#D36318"/>
<path d="M190.999 144.167H183.114C182.893 144.167 182.719 143.992 182.719 143.769C182.719 143.547 182.893 143.372 183.114 143.372H190.999C191.221 143.372 191.395 143.547 191.395 143.769C191.395 143.992 191.221 144.167 190.999 144.167Z" fill="#D36318"/>
<path d="M231.91 155.711L236.493 173.429L161.606 170.775L164.883 158.961L231.91 155.711Z" fill="#7D9FD6"/>
<path d="M224.231 171.467V154.702L172.673 156.76L167.915 165.714V169.401L224.231 171.467Z" fill="white"/>
<path d="M218.611 168.169H218.595L169.736 166.326C169.514 166.318 169.348 166.135 169.356 165.913C169.356 165.69 169.546 165.508 169.768 165.531L218.626 167.375C218.848 167.383 219.014 167.565 219.006 167.788C219.006 168.002 218.824 168.169 218.611 168.169Z" fill="#7D9FD6"/>
<path d="M175.483 163.084L177.32 158.444H183.114V163.354L175.483 163.084Z" fill="#D3DEF1"/>
<path d="M236.493 173.429V175.693L161.97 174.557L161.606 170.775L236.493 173.429Z" fill="#3863BE"/>
<path d="M246.768 78.0145L212.396 79.7466C212.396 79.7466 204.892 72.0874 204.124 72.0874H194.965C194.965 72.0874 193.16 70.8082 191.648 71.3246C190.136 71.8331 188.007 76.3063 188.054 77.7047C188.102 79.111 191.252 84.6329 191.648 85.3798C192.044 86.1266 205.018 89.8291 205.778 89.8291C206.538 89.8291 217.866 88.2957 217.866 88.2957L243.095 97.822C246.594 91.7201 246.8 81.3515 246.768 78.0145ZM193.952 81.2006C193.318 80.8907 191.648 78.9759 191.648 78.9759L193.825 76.934L198.915 79.7466C198.915 79.7466 194.593 81.5104 193.952 81.2006Z" fill="#F29F61"/>
<path d="M201.583 75.1622C201.535 75.1622 201.48 75.1542 201.432 75.1304L194.814 72.4528C194.609 72.3734 194.514 72.143 194.593 71.9364C194.672 71.7298 194.909 71.6345 195.107 71.7139L201.725 74.3915C201.931 74.4709 202.026 74.7013 201.947 74.9079C201.884 75.0589 201.733 75.1542 201.583 75.1542V75.1622Z" fill="#D36318"/>
<path d="M232.535 61.4089C230.58 61.4089 228.822 59.7881 227.817 58.628C227.223 57.9448 227.255 56.9357 227.888 56.2762L230.469 53.5987L231.039 54.1549L228.458 56.8324C228.11 57.1899 228.094 57.7382 228.419 58.1116C229.574 59.4464 231.838 61.4963 234.007 60.1933L234.411 60.8766C233.778 61.2579 233.145 61.4168 232.535 61.4168V61.4089Z" fill="#1B315F"/>
<path d="M224.025 44.9225C224.025 44.9225 222.268 50.5239 233.05 49.5467C232.503 45.4151 233.05 43.0395 233.05 43.0395L224.025 44.9225Z" fill="#1B315F"/>
<path d="M270.738 62.1001L256.228 42.7375H231.071C231.071 42.7375 229.376 52.4149 230.287 54.7746C231.197 57.1344 232.891 58.1752 232.891 58.1752C232.891 58.1752 232.369 63.9275 232.765 65.2385C233.16 66.5495 239.153 75.9646 240.974 75.8375C242.794 75.7104 248.534 72.0476 248.534 72.0476L253.489 81.2005L270.738 62.1001Z" fill="#F29F61"/>
<path d="M224.777 43.3017C224.777 43.3017 222.347 46.7896 225.933 46.5592C229.519 46.3288 232.306 46.0904 232.306 46.0904C232.306 46.0904 235.662 47.3696 235.662 48.0688C235.662 48.768 234.617 54.6952 235.662 56.7927C238.789 57.2615 239.834 56.7927 239.834 56.7927C239.834 56.7927 240.412 64.8174 239.834 65.9774C239.256 67.1374 233.928 68.8854 233.928 68.8854L237.625 74.5345C238.662 76.1235 240.76 76.6161 242.391 75.6547L248.534 72.0476L250.378 70.7446L248.985 62.7199C248.985 62.7199 248.288 65.7391 246.206 65.3974C244.124 65.0558 243.198 56.4431 243.539 55.6327C243.879 54.8223 246.317 52.6135 247.014 53.1935C247.711 53.7735 249.333 55.7519 249.215 57.4919L249.096 59.2398C249.096 59.2398 256.513 65.755 257.321 65.5166C258.128 65.2782 268.467 60.5985 268.451 58.93C268.435 57.2615 266.353 54.7031 266.353 54.7031C266.353 54.7031 267.509 48.4263 267.05 46.2176C266.591 44.0088 258.595 31.4473 256.505 30.8673C254.416 30.2873 245.502 28.7777 243.182 29.1194C240.863 29.461 227.54 37.2553 224.762 43.3017H224.777Z" fill="#1B315F"/>
<path d="M238.789 55.8397L227.751 57.004L227.834 57.7942L238.871 56.6298L238.789 55.8397Z" fill="#1B315F"/>
<path d="M275.401 63.2124L273.62 65.89L267.564 71.253L257.59 88.9153L250.655 79.826L268.458 58.922L275.401 63.2124Z" fill="white"/>
<path d="M257.645 89.6384L250.148 79.818L268.379 58.4056L275.963 63.0853L273.889 66.184L267.881 71.5073L257.645 89.6304V89.6384ZM251.17 79.8419L257.55 88.2003L267.311 70.9591L273.327 65.6278L274.855 63.3316L268.546 59.4385L251.17 79.8419Z" fill="#7D9FD6"/>
<path d="M130.037 181.946H66.5727V182.646H130.037V181.946Z" fill="#3863BE"/>
<path d="M304.358 94.7472C304.137 94.7472 303.963 94.5724 303.963 94.3499C303.963 94.2228 304.153 81.2164 320.8 74.6775C329.286 71.3405 335.691 63.2045 335.691 55.7439C335.691 48.2833 329.286 40.1474 320.8 36.8104C312.116 33.4019 308 28.2533 306.084 24.527C303.986 20.4749 303.963 17.273 303.963 17.1379C303.963 16.9155 304.137 16.7407 304.358 16.7407C304.58 16.7407 304.754 16.9155 304.754 17.1379C304.754 17.265 304.968 29.7391 321.085 36.0715C330.007 39.5753 336.474 47.8463 336.474 55.7439C336.474 63.6415 329.999 71.9125 321.085 75.4164C312.655 78.7295 308.665 83.6953 306.805 87.2786C304.786 91.1639 304.754 94.3102 304.754 94.342C304.754 94.5644 304.58 94.7392 304.358 94.7392V94.7472Z" fill="#3863BE"/>
<path d="M336.086 94.747C335.865 94.747 335.691 94.5722 335.691 94.3497C335.691 94.2226 335.477 81.7486 319.36 75.4162C310.438 71.9123 303.971 63.6413 303.971 55.7437C303.971 47.8461 310.446 39.5751 319.36 36.0713C327.79 32.7581 331.78 27.7923 333.648 24.209C335.667 20.3238 335.699 17.1775 335.699 17.1457C335.699 16.9232 335.873 16.7484 336.094 16.7484C336.316 16.7484 336.49 16.9232 336.49 17.1457C336.49 17.2728 336.3 30.2792 319.652 36.8181C311.166 40.1551 304.762 48.2911 304.762 55.7517C304.762 63.2123 311.166 71.3482 319.652 74.6852C328.337 78.0937 332.453 83.2423 334.369 86.9686C336.466 91.0207 336.49 94.2226 336.49 94.3577C336.49 94.5801 336.316 94.7549 336.094 94.7549L336.086 94.747Z" fill="#3863BE"/>
<path d="M325.756 88.5102H322.953C322.732 88.5102 322.558 88.3354 322.558 88.1129C322.558 87.8904 322.732 87.7156 322.953 87.7156H325.756C325.977 87.7156 326.152 87.8904 326.152 88.1129C326.152 88.3354 325.977 88.5102 325.756 88.5102Z" fill="#3863BE"/>
<path d="M320.222 88.5102H305.965C305.744 88.5102 305.57 88.3354 305.57 88.1129C305.57 87.8904 305.744 87.7156 305.965 87.7156H320.222C320.444 87.7156 320.618 87.8904 320.618 88.1129C320.618 88.3354 320.444 88.5102 320.222 88.5102Z" fill="#3863BE"/>
<path d="M322.392 83.886H319.953C319.732 83.886 319.558 83.7112 319.558 83.4888C319.558 83.2663 319.732 83.0915 319.953 83.0915H322.392C322.613 83.0915 322.787 83.2663 322.787 83.4888C322.787 83.7112 322.613 83.886 322.392 83.886Z" fill="#3863BE"/>
<path d="M315.607 83.886H308.823C308.602 83.886 308.427 83.7112 308.427 83.4888C308.427 83.2663 308.602 83.0915 308.823 83.0915H315.607C315.829 83.0915 316.003 83.2663 316.003 83.4888C316.003 83.7112 315.829 83.886 315.607 83.886Z" fill="#3863BE"/>
<path d="M319.423 79.2539H313.794C313.573 79.2539 313.399 79.0791 313.399 78.8566C313.399 78.6341 313.573 78.4594 313.794 78.4594H319.423C319.644 78.4594 319.819 78.6341 319.819 78.8566C319.819 79.0791 319.644 79.2539 319.423 79.2539Z" fill="#3863BE"/>
<path d="M325.756 23.7404H320.808C320.587 23.7404 320.412 23.5656 320.412 23.3431C320.412 23.1207 320.587 22.9459 320.808 22.9459H325.756C325.977 22.9459 326.152 23.1207 326.152 23.3431C326.152 23.5656 325.977 23.7404 325.756 23.7404Z" fill="#3863BE"/>
<path d="M317.198 23.7404H305.965C305.744 23.7404 305.57 23.5656 305.57 23.3431C305.57 23.1207 305.744 22.9459 305.965 22.9459H317.198C317.42 22.9459 317.594 23.1207 317.594 23.3431C317.594 23.5656 317.42 23.7404 317.198 23.7404Z" fill="#3863BE"/>
<path d="M322.391 28.3646H318.718C318.497 28.3646 318.323 28.1898 318.323 27.9673C318.323 27.7449 318.497 27.5701 318.718 27.5701H322.391C322.613 27.5701 322.787 27.7449 322.787 27.9673C322.787 28.1898 322.613 28.3646 322.391 28.3646Z" fill="#3863BE"/>
<path d="M316.605 28.3646H308.823C308.602 28.3646 308.427 28.1898 308.427 27.9673C308.427 27.7449 308.602 27.5701 308.823 27.5701H316.605C316.826 27.5701 317.001 27.7449 317.001 27.9673C317.001 28.1898 316.826 28.3646 316.605 28.3646Z" fill="#3863BE"/>
<path d="M319.423 32.9887H313.794C313.573 32.9887 313.399 32.8139 313.399 32.5914C313.399 32.3689 313.573 32.1942 313.794 32.1942H319.423C319.644 32.1942 319.819 32.3689 319.819 32.5914C319.819 32.8139 319.644 32.9887 319.423 32.9887Z" fill="#3863BE"/>
<path d="M321.196 70.0056H318.718C318.497 70.0056 318.323 69.8308 318.323 69.6083C318.323 69.3859 318.497 69.2111 318.718 69.2111H321.196C321.418 69.2111 321.592 69.3859 321.592 69.6083C321.592 69.8308 321.418 70.0056 321.196 70.0056Z" fill="#3863BE"/>
<path d="M315.607 70.0056H311.253C311.032 70.0056 310.858 69.8308 310.858 69.6083C310.858 69.3859 311.032 69.2111 311.253 69.2111H315.607C315.829 69.2111 316.003 69.3859 316.003 69.6083C316.003 69.8308 315.829 70.0056 315.607 70.0056Z" fill="#3863BE"/>
<path d="M322.954 65.3736H307.24C307.018 65.3736 306.844 65.1988 306.844 64.9763C306.844 64.7538 307.018 64.579 307.24 64.579H322.954C323.175 64.579 323.349 64.7538 323.349 64.9763C323.349 65.1988 323.175 65.3736 322.954 65.3736Z" fill="#3863BE"/>
<path d="M329.049 60.7494H326.484C326.262 60.7494 326.088 60.5746 326.088 60.3522C326.088 60.1297 326.262 59.9549 326.484 59.9549H329.049C329.271 59.9549 329.445 60.1297 329.445 60.3522C329.445 60.5746 329.271 60.7494 329.049 60.7494Z" fill="#3863BE"/>
<path d="M323.856 60.7494H305.269C305.047 60.7494 304.873 60.5746 304.873 60.3522C304.873 60.1297 305.047 59.9549 305.269 59.9549H323.856C324.078 59.9549 324.252 60.1297 324.252 60.3522C324.252 60.5746 324.078 60.7494 323.856 60.7494Z" fill="#3863BE"/>
<path d="M327.323 56.1252H324.402C324.18 56.1252 324.006 55.9504 324.006 55.728C324.006 55.5055 324.18 55.3307 324.402 55.3307H327.323C327.545 55.3307 327.719 55.5055 327.719 55.728C327.719 55.9504 327.545 56.1252 327.323 56.1252Z" fill="#3863BE"/>
<path d="M319.423 56.1252H304.366C304.145 56.1252 303.971 55.9504 303.971 55.728C303.971 55.5055 304.145 55.3307 304.366 55.3307H319.423C319.645 55.3307 319.819 55.5055 319.819 55.728C319.819 55.9504 319.645 56.1252 319.423 56.1252Z" fill="#3863BE"/>
<path d="M321.568 51.5011H315.861C315.639 51.5011 315.465 51.3263 315.465 51.1039C315.465 50.8814 315.639 50.7066 315.861 50.7066H321.568C321.79 50.7066 321.964 50.8814 321.964 51.1039C321.964 51.3263 321.79 51.5011 321.568 51.5011Z" fill="#3863BE"/>
<path d="M313.795 51.5011H305.277C305.055 51.5011 304.881 51.3263 304.881 51.1039C304.881 50.8814 305.055 50.7066 305.277 50.7066H313.795C314.016 50.7066 314.19 50.8814 314.19 51.1039C314.19 51.3263 314.016 51.5011 313.795 51.5011Z" fill="#3863BE"/>
<path d="M324.402 46.869H320.222C320.001 46.869 319.827 46.6943 319.827 46.4718C319.827 46.2493 320.001 46.0745 320.222 46.0745H324.402C324.624 46.0745 324.798 46.2493 324.798 46.4718C324.798 46.6943 324.624 46.869 324.402 46.869Z" fill="#3863BE"/>
<path d="M316.605 46.869H307.272C307.05 46.869 306.876 46.6943 306.876 46.4718C306.876 46.2493 307.05 46.0745 307.272 46.0745H316.605C316.826 46.0745 317.001 46.2493 317.001 46.4718C317.001 46.6943 316.826 46.869 316.605 46.869Z" fill="#3863BE"/>
<path d="M319.138 42.2449H311.174C310.953 42.2449 310.778 42.0701 310.778 41.8476C310.778 41.6252 310.953 41.4504 311.174 41.4504H319.138C319.36 41.4504 319.534 41.6252 319.534 41.8476C319.534 42.0701 319.36 42.2449 319.138 42.2449Z" fill="#3863BE"/>
<path d="M34.0294 100.492C29.818 100.492 26.3903 97.0513 26.3903 92.8245C26.3903 88.5976 29.818 85.1573 34.0294 85.1573C38.2408 85.1573 41.6685 88.5976 41.6685 92.8245C41.6685 97.0513 38.2408 100.492 34.0294 100.492ZM34.0294 85.9518C30.2533 85.9518 27.1819 89.0346 27.1819 92.8245C27.1819 96.6143 30.2533 99.6971 34.0294 99.6971C37.8054 99.6971 40.8768 96.6143 40.8768 92.8245C40.8768 89.0346 37.8054 85.9518 34.0294 85.9518Z" fill="#3863BE"/>
<path d="M34.0293 97.4566C31.4882 97.4566 29.4142 95.3829 29.4142 92.8245C29.4142 90.2662 31.4803 88.1924 34.0293 88.1924C36.5783 88.1924 38.6444 90.2662 38.6444 92.8245C38.6444 95.3829 36.5783 97.4566 34.0293 97.4566ZM34.0293 88.9949C31.9236 88.9949 30.2058 90.719 30.2058 92.8325C30.2058 94.9459 31.9236 96.67 34.0293 96.67C36.135 96.67 37.8528 94.9459 37.8528 92.8325C37.8528 90.719 36.135 88.9949 34.0293 88.9949Z" fill="#3863BE"/>
<path d="M43.41 93.2217H40.3781C40.1565 93.2217 39.9823 93.0469 39.9823 92.8244C39.9823 92.602 40.1565 92.4272 40.3781 92.4272H43.41C43.6317 92.4272 43.8058 92.602 43.8058 92.8244C43.8058 93.0469 43.6317 93.2217 43.41 93.2217Z" fill="#3863BE"/>
<path d="M27.6964 93.2217H24.6645C24.4428 93.2217 24.2687 93.0469 24.2687 92.8244C24.2687 92.602 24.4428 92.4272 24.6645 92.4272H27.6964C27.918 92.4272 28.0922 92.602 28.0922 92.8244C28.0922 93.0469 27.918 93.2217 27.6964 93.2217Z" fill="#3863BE"/>
<path d="M34.0372 86.8575C33.8156 86.8575 33.6414 86.6827 33.6414 86.4603V83.4172C33.6414 83.1948 33.8156 83.02 34.0372 83.02C34.2589 83.02 34.433 83.1948 34.433 83.4172V86.4603C34.433 86.6827 34.2589 86.8575 34.0372 86.8575Z" fill="#3863BE"/>
<path d="M34.0372 102.637C33.8156 102.637 33.6414 102.462 33.6414 102.24V99.1965C33.6414 98.9741 33.8156 98.7993 34.0372 98.7993C34.2589 98.7993 34.433 98.9741 34.433 99.1965V102.24C34.433 102.462 34.2589 102.637 34.0372 102.637Z" fill="#3863BE"/>
<defs>
<linearGradient id="paint0_linear_1259_1689" x1="179.299" y1="0" x2="179.299" y2="216.19" gradientUnits="userSpaceOnUse">
<stop stop-color="#FFF3E6"/>
<stop offset="1" stop-color="#FFD8B5"/>
</linearGradient>
</defs>
</svg>
