<svg width="277" height="194" viewBox="0 0 277 194" fill="none" xmlns="http://www.w3.org/2000/svg">
<path d="M272.336 137.228C254.055 181.787 182.293 201.584 107.986 191.355C33.678 181.14 -13.027 151.006 3.23281 100.225C17.6067 55.3014 89.4895 -9.13582 163.797 1.07968C238.105 11.2952 290.616 92.6683 272.336 137.228Z" fill="url(#paint0_linear_1259_1600)"/>
<path opacity="0.4" d="M50.221 104.301C106.329 82.5742 144.722 40.0928 149.02 0.0135116C80.1812 -0.647729 16.6505 58.2837 3.23311 100.225C1.38754 105.974 0.363725 111.453 0.0942993 116.662C16.3811 114.908 33.3415 110.846 50.2345 104.301H50.221Z" fill="white"/>
<path d="M78.0662 52.1301C78.0662 52.1301 69.9969 51.0505 66.4405 54.0868C62.4934 57.6629 63.598 70.5638 64.1638 70.6988C64.7296 70.8337 75.5201 72.75 75.5201 72.75L78.0662 52.1435V52.1301Z" fill="#3863BE"/>
<path d="M89.9883 61.6169C89.9883 61.6169 110.599 67.6625 113.253 72.7365C115.907 77.8105 134.915 112.883 134.915 112.883L160.12 72.7365C160.12 72.7365 175.154 86.2312 173.82 106.595C173.82 106.595 150.784 153.543 137.987 153.098C125.189 152.652 95.3094 134.326 95.3094 134.326L89.9883 61.6034V61.6169Z" fill="white"/>
<path d="M141.88 193.96C135.414 167.537 110.263 80.6174 110.263 80.6174L91.8878 88.9707C91.8878 88.9707 106.922 164.514 112.283 191.922C122.252 193.136 132.153 193.825 141.88 193.973V193.96Z" fill="white"/>
<path d="M87.5769 95.4076L61.8198 62.3456C61.8198 62.3456 40.4139 71.3466 38.1507 75.7053C35.8876 80.0641 11.8682 129.401 12.5687 140.21C12.9863 146.688 17.7956 155.419 23.6017 162.503C41.8688 176.254 69.7679 185.633 103.742 190.734C107.568 181.49 101.776 155.716 101.776 155.716L87.5904 95.3941L87.5769 95.4076Z" fill="white"/>
<path d="M91.295 56.8532L100.024 65.8812L96.239 71.7649C96.239 71.7649 103.554 79.8482 103.487 82.4797C103.419 85.1111 104.941 118.254 104.941 118.254L85.8661 76.569L91.2816 56.8532H91.295Z" fill="white"/>
<path d="M104.955 118.457C104.874 118.457 104.807 118.416 104.78 118.335L85.7179 76.65C85.7179 76.65 85.691 76.5555 85.7179 76.515L91.1334 56.7992C91.1334 56.7992 91.2007 56.6778 91.2681 56.6643C91.3354 56.6508 91.4028 56.6643 91.4567 56.7183L100.186 65.7462C100.186 65.7462 100.253 65.9082 100.213 65.9891L96.5084 71.7514C97.4245 72.777 103.769 79.9427 103.716 82.4797C103.662 85.0707 105.157 117.917 105.17 118.241C105.17 118.335 105.117 118.416 105.022 118.443C105.009 118.443 104.995 118.443 104.982 118.443L104.955 118.457ZM86.0951 76.5555L104.712 117.256C104.456 111.669 103.258 84.8143 103.298 82.4797C103.352 79.9562 96.1716 71.9808 96.0908 71.9133C96.0369 71.8458 96.0234 71.7514 96.0773 71.6704L99.7819 65.9217L91.3893 57.2581L86.0816 76.569L86.0951 76.5555Z" fill="#7D9FD6"/>
<path d="M121.417 192.88C118.48 175.877 101.641 80.8333 92.4536 76.2316C82.3636 71.1711 75.7491 75.5299 75.7491 75.5299L86.8495 112.897C86.8495 112.897 97.182 166.43 98.2866 189.884C101.466 190.41 104.712 190.91 107.999 191.369C112.485 191.989 116.971 192.489 121.43 192.893L121.417 192.88Z" fill="#3863BE"/>
<path d="M93.5851 54.91C93.5851 54.91 94.5146 86.1637 91.9012 88.9706C89.2878 91.7775 66.8176 69.6597 67.572 65.7193C68.3264 61.7788 76.288 48.9048 76.288 48.9048L93.5851 54.91Z" fill="#D36318"/>
<path d="M85.7686 56.783L76.6823 59.0586C76.6823 59.0586 68.8792 40.9429 70.0887 34.3675C71.2983 27.792 75.2367 23.7138 75.989 22.975C76.7413 22.2361 90.6068 16.7246 93.6455 16.828C96.6841 16.9315 110.55 25.1323 113.795 25.1323C117.04 25.1323 117.571 25.8563 117.969 28.3831C118.368 30.9098 112.925 38.3866 104.605 39.0663C96.2858 39.7312 87.3027 39.3027 87.3027 39.3027L85.7539 56.783H85.7686Z" fill="#3863BE"/>
<path d="M82.4645 54.7143C82.4645 54.7143 77.5526 54.4927 76.343 52.4092C75.1335 50.3258 73.3191 45.1541 74.5139 43.573C75.7087 41.992 79.1161 41.9772 79.1161 41.9772L82.73 49.2175L85.3999 48.8629L87.9813 34.8255C87.9813 34.8255 94.3535 31.0575 96.8316 31.7372C99.3097 32.4169 105.667 37.4409 108.278 36.3918C109.414 42.4205 108.499 52.9855 108.19 55.793C107.954 57.9651 104.354 64.8656 102.732 67.9095C102.275 68.7665 101.272 69.195 100.342 68.9143C96.4334 67.7617 86.6685 64.6735 85.3851 62.2059C83.7773 59.1029 82.4793 54.7143 82.4793 54.7143H82.4645Z" fill="#F29F61"/>
<path d="M105.387 55.0985C104.266 55.0985 102.717 54.5665 102.171 54.3745C101.891 54.271 101.758 53.9755 101.847 53.6947C101.95 53.4288 102.245 53.281 102.525 53.3697C103.661 53.7834 105.077 54.1085 105.608 54.0198C105.829 53.1332 105.254 48.8777 104.561 45.2575C104.502 44.9768 104.694 44.696 104.974 44.6369C105.254 44.5926 105.534 44.7699 105.593 45.0506C107.378 54.404 106.508 54.7882 106.139 54.9507C105.933 55.0394 105.667 55.0837 105.372 55.0837L105.387 55.0985Z" fill="#D36318"/>
<path d="M98.9557 47.74C98.4247 47.6956 98.0264 47.2376 98.0559 46.7352L98.2477 44.2823C98.2919 43.7651 98.7492 43.3957 99.295 43.4401C99.826 43.4844 100.224 43.9425 100.195 44.4449L100.003 46.8977C99.9587 47.4149 99.5015 47.7843 98.9557 47.74Z" fill="#1B315F"/>
<path d="M108.544 47.7695C108.013 47.7252 107.614 47.2671 107.644 46.7647L107.836 44.3119C107.88 43.7947 108.337 43.4253 108.883 43.4696C109.414 43.5139 109.812 43.972 109.783 44.4744L109.591 46.9273C109.547 47.4444 109.089 47.8138 108.544 47.7695Z" fill="#1B315F"/>
<path d="M66.4404 54.0869C66.4404 54.0869 61.9545 60.2809 69.6196 66.8394C77.2848 73.3978 86.095 83.3839 86.836 112.897C75.9781 90.2797 67.5316 86.5281 67.5316 86.5281V75.4625C67.5316 75.4625 60.8094 77.5272 59.6913 80.3341C55.9463 74.8957 59.3141 57.0827 66.4269 54.0869H66.4404Z" fill="white"/>
<path d="M86.836 113.086C86.7551 113.086 86.6878 113.045 86.6609 112.978C75.9781 90.725 67.5451 86.744 67.4643 86.7036C67.3969 86.6766 67.343 86.5956 67.343 86.5281V75.7324C66.1171 76.1372 60.8364 78.0265 59.8799 80.415C59.853 80.4825 59.7856 80.523 59.7183 80.5365C59.6509 80.5365 59.5701 80.5095 59.5297 80.4555C57.5224 77.5406 57.4281 70.7663 59.2872 64.3563C60.8633 58.9449 63.4363 55.1394 66.3461 53.9114C66.427 53.8709 66.5213 53.9114 66.5751 53.9654C66.629 54.0329 66.629 54.1273 66.5751 54.2083C66.5751 54.2218 65.4705 55.7467 65.3223 58.0408C65.1202 61.0636 66.6425 64.0594 69.7274 66.6909C73.4455 69.8756 77.689 74.0725 80.9894 81.1842C84.7075 89.2001 86.6878 99.564 87.0246 112.897C87.0246 112.991 86.9707 113.072 86.8764 113.099C86.8629 113.099 86.8494 113.099 86.836 113.099V113.086ZM67.7337 86.3932C68.8114 86.933 76.5978 91.4132 86.607 111.966C85.6236 80.7794 75.1429 71.8054 69.4849 66.9743C65.457 63.5331 64.7969 60.1729 64.9451 57.9733C65.0529 56.4079 65.5648 55.2069 65.9151 54.5457C63.3555 55.9761 61.1058 59.5252 59.6644 64.4508C57.8862 70.5504 57.8996 76.9604 59.6644 79.9292C61.1462 77.2438 67.2083 75.3545 67.4777 75.2735C67.5451 75.26 67.599 75.2735 67.6528 75.3005C67.7067 75.341 67.7337 75.395 67.7337 75.4625V86.4067V86.3932Z" fill="#7D9FD6"/>
<path d="M58.8023 110.103C58.6945 110.103 58.6002 110.022 58.5732 109.914C55.421 93.0865 42.1113 76.8794 41.9766 76.7174C41.8958 76.623 41.9092 76.4745 42.0035 76.3936C42.0978 76.3126 42.246 76.3261 42.3268 76.4205C42.4616 76.5825 55.852 92.8841 59.0178 109.833C59.0447 109.955 58.9639 110.076 58.8292 110.103C58.8157 110.103 58.8022 110.103 58.7888 110.103H58.8023Z" fill="#7D9FD6"/>
<path d="M57.3204 176.093C50.1132 176.093 40.9662 175.134 36.3052 170.83C36.2109 170.749 36.2109 170.6 36.3052 170.506C36.386 170.411 36.5342 170.411 36.6285 170.506C40.8315 174.379 48.9951 175.418 55.0976 175.593C61.7524 175.796 67.4643 175.053 67.5182 175.04C67.6529 175.04 67.7606 175.107 67.7741 175.242C67.7876 175.377 67.7068 175.485 67.572 175.499C67.1679 175.553 62.8032 176.106 57.3204 176.106V176.093Z" fill="#7D9FD6"/>
<path d="M36.4534 139.751C36.4534 139.751 36.4129 139.751 36.386 139.751C36.2648 139.711 36.1974 139.589 36.2243 139.468C38.2046 132.437 45.5195 131.29 45.5869 131.277C45.7216 131.263 45.8294 131.344 45.8428 131.466C45.8563 131.587 45.7755 131.708 45.6543 131.722C45.5869 131.722 38.5683 132.829 36.6689 139.576C36.642 139.684 36.5477 139.738 36.4534 139.738V139.751Z" fill="#7D9FD6"/>
<path d="M122.212 161.91L81.2858 163.448C79.4268 163.515 78.1874 162.125 78.5242 160.331L84.8288 127.512C85.179 125.717 86.9572 124.219 88.8297 124.138L129.756 122.599C131.615 122.532 132.854 123.922 132.517 125.717L126.213 158.536C125.862 160.331 124.084 161.829 122.212 161.91Z" fill="#1B315F"/>
<path d="M62.2105 137.848L74.402 138.577L83.5221 134.34L81.9459 142.464L89.4899 143.57H94.1779C94.1779 143.57 104.578 139.792 105.682 139.522C106.787 139.252 109.724 139.616 110.195 140.345C110.667 141.074 109.091 143.206 109.091 144.393C109.091 145.581 93.5447 154.339 92.2515 154.433C90.9582 154.528 78.2683 151.762 78.2683 151.762L61.968 155.608C61.968 155.608 60.7825 147.7 62.2105 137.835V137.848Z" fill="#F29F61"/>
<path d="M120.501 163.448C120.501 163.448 130.51 162.341 135.104 156.593C138.404 166.093 140.142 172.665 141.031 176.794C141.92 180.924 139.913 185.026 136.154 186.794C136.074 186.834 135.979 186.875 135.898 186.915C131.264 188.993 125.849 186.51 124.057 181.76C120.137 171.329 120.501 163.448 120.501 163.448Z" fill="white"/>
<path d="M132.45 187.86C131.291 187.86 130.133 187.631 129.028 187.158C126.671 186.173 124.785 184.23 123.882 181.828C119.989 171.477 120.299 163.515 120.312 163.434C120.312 163.34 120.393 163.259 120.487 163.246C120.582 163.246 130.47 162.085 134.955 156.471C134.996 156.417 135.077 156.377 135.144 156.404C135.211 156.404 135.279 156.458 135.292 156.539C138.687 166.295 140.398 172.921 141.233 176.767C142.149 180.964 140.101 185.174 136.249 186.983C136.168 187.023 136.074 187.064 135.979 187.104C134.848 187.617 133.649 187.86 132.45 187.86ZM120.689 163.623C120.662 164.811 120.689 172.247 124.246 181.693C125.108 184 126.913 185.849 129.176 186.794C131.359 187.698 133.716 187.684 135.831 186.74C135.912 186.699 136.006 186.659 136.087 186.618C139.765 184.878 141.732 180.856 140.856 176.835C140.034 173.056 138.35 166.552 135.05 156.984C130.712 162.099 122.036 163.434 120.703 163.623H120.689Z" fill="#7D9FD6"/>
<path d="M121.094 170.141H120.972C120.851 170.141 120.743 170.033 120.743 169.912C120.743 169.79 120.838 169.696 120.972 169.683C121.094 169.683 131.938 169.871 137.192 163.313C137.273 163.219 137.421 163.205 137.515 163.273C137.609 163.353 137.623 163.502 137.555 163.596C132.477 169.939 122.346 170.141 121.094 170.141Z" fill="#7D9FD6"/>
<path d="M67.5451 175.485C67.4642 175.485 67.3834 175.445 67.343 175.364C59.0312 160.047 61.6985 139.643 62.0757 137.12C47.3651 136.553 45.4926 131.776 45.4117 131.573C45.4117 131.546 45.3983 131.519 45.3983 131.492C45.5734 121.614 56.2965 101.993 56.4043 101.804C56.4717 101.696 56.6064 101.656 56.7141 101.71C56.8219 101.777 56.8623 101.912 56.8084 102.02C56.7007 102.222 46.0583 121.668 45.8563 131.452C46.0583 131.87 48.4158 136.189 62.3451 136.674C62.4125 136.674 62.4799 136.701 62.5203 136.755C62.5607 136.809 62.5742 136.877 62.5742 136.944C62.5337 137.16 59.0177 158.887 67.6663 174.999C68.5689 174.757 73.2434 172.8 72.2735 159.413C72.2735 159.292 72.3543 159.17 72.489 159.17C72.6103 159.143 72.7315 159.251 72.7315 159.386C73.8362 174.595 67.828 175.472 67.572 175.499H67.5451V175.485Z" fill="#7D9FD6"/>
<path d="M196.479 188.751C233.134 180.6 261.747 163.084 272.349 137.228C284.797 106.892 264.428 59.5117 226.722 29.1216H196.479V188.737V188.751Z" fill="#FACEAC"/>
<path opacity="0.4" d="M234.158 35.5451V175.485C252.237 166.106 265.762 153.273 272.336 137.228C283.935 108.956 267.028 65.8812 234.158 35.5451Z" fill="#F2994A"/>
<path d="M199.86 187.954V29.1216H193.084V189.466C195.374 188.993 197.637 188.494 199.86 187.954Z" fill="#F2994A"/>
<path d="M205.33 59.8895H180.435V92.9786H205.33V59.8895Z" fill="#7D9FD6"/>
<path d="M188.423 59.8895H180.435V92.9786H188.423V59.8895Z" fill="#3863BE"/>
<path d="M234.158 59.8895H209.263V92.9786H234.158V59.8895Z" fill="#D3DEF1"/>
<path d="M217.252 59.8895H209.263V92.9786H217.252V59.8895Z" fill="white"/>
<path d="M249.435 59.8895H224.54V92.9786H249.435V59.8895Z" fill="#D3DEF1"/>
<path d="M241.419 59.8895L234.064 92.9786H249.421V59.8895H241.419Z" fill="#7D9FD6"/>
<path d="M232.528 59.8895H224.54V92.9786H232.528V59.8895Z" fill="white"/>
<path d="M264.846 59.8895H239.951V92.9786H264.846V59.8895Z" fill="#7D9FD6"/>
<path d="M247.939 59.8895H239.951V92.9786H247.939V59.8895Z" fill="#3863BE"/>
<path d="M158.557 77.2572C158.557 77.2572 168.755 68.904 171.597 68.3642C174.44 67.8244 189.177 65.6922 190.242 66.7583C191.306 67.8244 190.956 70.7663 190.956 70.7663L180.435 72.5206V87.1353L170.183 89.5374L159.783 92.9921C159.783 92.9921 158.099 88.3094 157.938 85.1246C157.709 80.5769 158.557 77.2707 158.557 77.2707V77.2572Z" fill="#F29F61"/>
<path d="M166.559 104.22C166.559 104.22 166.438 104.193 166.384 104.139C158.907 95.5966 157.547 87.4998 157.708 82.1963C157.897 76.4476 159.891 72.6691 159.918 72.6421C159.972 72.5341 160.12 72.4936 160.228 72.5476C160.335 72.6016 160.376 72.75 160.322 72.858C160.241 73.0064 152.616 87.7292 166.734 103.842C166.815 103.936 166.815 104.085 166.707 104.166C166.667 104.206 166.613 104.22 166.559 104.22Z" fill="#7D9FD6"/>
<path d="M172.864 80.2665C172.513 80.2665 172.15 80.2396 171.773 80.1991C171.503 80.1721 171.315 79.9292 171.355 79.6593C171.382 79.3894 171.624 79.214 171.894 79.2274C178.643 80.0236 179.923 72.7365 179.977 72.4261C180.017 72.1697 180.259 71.9808 180.529 72.0348C180.785 72.0752 180.973 72.3316 180.92 72.588C180.92 72.669 179.572 80.253 172.877 80.253L172.864 80.2665Z" fill="#D36318"/>
<path d="M271.959 92.9786H196.479V99.8474H273.845C273.306 97.5668 272.686 95.2727 271.959 92.9786Z" fill="#F2994A"/>
<path d="M202.312 158.941H257.464C258.972 157.456 260.4 155.931 261.747 154.353H206.892C204.36 154.353 202.312 156.404 202.312 158.941Z" fill="#3963BE"/>
<path d="M210.88 127.795H218.491V147.079C218.491 149.184 216.78 150.898 214.679 150.898C212.577 150.898 210.866 149.184 210.866 147.079V127.795H210.88Z" fill="white"/>
<path d="M214.692 151.181C212.442 151.181 210.61 149.346 210.61 147.092V127.808C210.61 127.646 210.732 127.525 210.893 127.525H218.505C218.653 127.525 218.787 127.646 218.787 127.808V147.092C218.787 149.346 216.955 151.181 214.706 151.181H214.692ZM211.163 128.078V147.092C211.163 149.036 212.739 150.628 214.692 150.628C216.645 150.628 218.222 149.049 218.222 147.092V128.078H211.163Z" fill="#7D9FD6"/>
<path d="M214.477 134.961H213.116C212.588 134.961 212.16 135.39 212.16 135.919V144.582C212.16 145.112 212.588 145.54 213.116 145.54H214.477C215.005 145.54 215.433 145.112 215.433 144.582V135.919C215.433 135.39 215.005 134.961 214.477 134.961Z" fill="#D3DEF1"/>
<path d="M218.693 125.798H210.678C210.06 125.798 209.56 126.299 209.56 126.918V127.727C209.56 128.346 210.06 128.848 210.678 128.848H218.693C219.311 128.848 219.811 128.346 219.811 127.727V126.918C219.811 126.299 219.311 125.798 218.693 125.798Z" fill="#7D9FD6"/>
<path d="M224.041 127.795H231.652V147.079C231.652 149.184 229.942 150.898 227.84 150.898C225.739 150.898 224.028 149.184 224.028 147.079V127.795H224.041Z" fill="white"/>
<path d="M227.84 151.181C225.59 151.181 223.758 149.346 223.758 147.092V127.808C223.758 127.646 223.88 127.525 224.041 127.525H231.652C231.801 127.525 231.935 127.646 231.935 127.808V147.092C231.935 149.346 230.103 151.181 227.854 151.181H227.84ZM224.311 128.078V147.092C224.311 149.036 225.887 150.628 227.84 150.628C229.793 150.628 231.37 149.049 231.37 147.092V128.078H224.311Z" fill="#7D9FD6"/>
<path d="M227.638 134.961H226.278C225.749 134.961 225.321 135.39 225.321 135.919V144.582C225.321 145.112 225.749 145.54 226.278 145.54H227.638C228.166 145.54 228.595 145.112 228.595 144.582V135.919C228.595 135.39 228.166 134.961 227.638 134.961Z" fill="#D3DEF1"/>
<path d="M231.855 125.798H223.839C223.222 125.798 222.721 126.299 222.721 126.918V127.727C222.721 128.346 223.222 128.848 223.839 128.848H231.855C232.472 128.848 232.973 128.346 232.973 127.727V126.918C232.973 126.299 232.472 125.798 231.855 125.798Z" fill="#7D9FD6"/>
<path d="M237.203 127.795H244.814V147.079C244.814 149.184 243.103 150.898 241.002 150.898C238.9 150.898 237.189 149.184 237.189 147.079V127.795H237.203Z" fill="white"/>
<path d="M241.002 151.181C238.752 151.181 236.92 149.346 236.92 147.092V127.808C236.92 127.646 237.041 127.525 237.203 127.525H244.814C244.962 127.525 245.097 127.646 245.097 127.808V147.092C245.097 149.346 243.265 151.181 241.015 151.181H241.002ZM237.472 128.078V147.092C237.472 149.036 239.048 150.628 241.002 150.628C242.955 150.628 244.531 149.049 244.531 147.092V128.078H237.472Z" fill="#7D9FD6"/>
<path d="M240.799 134.961H239.439C238.911 134.961 238.482 135.39 238.482 135.919V144.582C238.482 145.112 238.911 145.54 239.439 145.54H240.799C241.328 145.54 241.756 145.112 241.756 144.582V135.919C241.756 135.39 241.328 134.961 240.799 134.961Z" fill="#D3DEF1"/>
<path d="M245.016 125.798H237.001C236.383 125.798 235.882 126.299 235.882 126.918V127.727C235.882 128.346 236.383 128.848 237.001 128.848H245.016C245.634 128.848 246.134 128.346 246.134 127.727V126.918C246.134 126.299 245.634 125.798 245.016 125.798Z" fill="#7D9FD6"/>
<path d="M250.351 127.795H257.962V147.079C257.962 149.184 256.251 150.898 254.15 150.898C252.048 150.898 250.337 149.184 250.337 147.079V127.795H250.351Z" fill="white"/>
<path d="M254.163 151.181C251.913 151.181 250.081 149.346 250.081 147.092V127.808C250.081 127.646 250.203 127.525 250.364 127.525H257.975C258.124 127.525 258.258 127.646 258.258 127.808V147.092C258.258 149.346 256.426 151.181 254.177 151.181H254.163ZM250.634 128.078V147.092C250.634 149.036 252.21 150.628 254.163 150.628C256.116 150.628 257.693 149.049 257.693 147.092V128.078H250.634Z" fill="#7D9FD6"/>
<path d="M253.948 134.961H252.587C252.059 134.961 251.63 135.39 251.63 135.919V144.582C251.63 145.112 252.059 145.54 252.587 145.54H253.948C254.476 145.54 254.904 145.112 254.904 144.582V135.919C254.904 135.39 254.476 134.961 253.948 134.961Z" fill="#D3DEF1"/>
<path d="M258.164 125.798H250.149C249.531 125.798 249.031 126.299 249.031 126.918V127.727C249.031 128.346 249.531 128.848 250.149 128.848H258.164C258.782 128.848 259.282 128.346 259.282 127.727V126.918C259.282 126.299 258.782 125.798 258.164 125.798Z" fill="#7D9FD6"/>
<path d="M256.44 131.034H211.594C208.482 131.034 205.949 133.571 205.949 136.688V158.428H257.975C258.568 157.834 259.161 157.227 259.727 156.606H207.754V136.674C207.754 134.556 209.465 132.842 211.58 132.842H256.426C258.541 132.842 260.252 134.556 260.252 136.674V156.026C260.872 155.338 261.478 154.649 262.071 153.948V136.674C262.071 133.557 259.538 131.02 256.426 131.02L256.44 131.034Z" fill="#3963BE"/>
<path d="M196.479 158.941V165.81H249.529C252.371 163.637 255.012 161.343 257.464 158.941H196.479Z" fill="#F2994A"/>
<path d="M229.861 62.6964H226.991V71.2521H229.861V62.6964Z" fill="#7D9FD6"/>
<path d="M245.38 80.2936H242.51V88.8492H245.38V80.2936Z" fill="#D3DEF1"/>
<path d="M157.466 56.5024C152.051 56.5024 146.635 54.4377 142.513 50.3083C138.525 46.3004 136.316 40.9834 136.316 35.3292C136.316 29.6749 138.512 24.358 142.513 20.35C146.514 16.3421 151.822 14.1425 157.466 14.1425C163.111 14.1425 168.418 16.3421 172.419 20.35C176.42 24.358 178.616 29.6749 178.616 35.3292C178.616 40.9834 176.42 46.3004 172.419 50.3083C168.297 54.4377 162.882 56.5024 157.466 56.5024ZM157.466 14.8577C152.01 14.8577 146.878 16.9898 143.011 20.8493C139.159 24.7088 137.03 29.8503 137.03 35.3157C137.03 40.781 139.159 45.9225 143.011 49.7955C150.973 57.7709 163.946 57.7709 171.907 49.7955C175.76 45.9225 177.889 40.7945 177.889 35.3157C177.889 29.8368 175.76 24.7088 171.907 20.8493C168.041 16.9763 162.922 14.8577 157.453 14.8577H157.466Z" fill="#3863BE"/>
<path d="M172.891 31.3212C172.204 28.6493 170.83 26.1258 168.741 24.0341C163.501 18.7847 155.526 17.975 149.424 21.5511L172.891 31.3212Z" fill="#FACEAC"/>
<path d="M157.466 51.6443C153.29 51.6443 149.114 50.0519 145.935 46.8671C142.85 43.7768 141.166 39.688 141.166 35.3157C141.166 30.9434 142.863 26.8545 145.935 23.7642C149.02 20.6739 153.101 18.9871 157.466 18.9871C161.831 18.9871 165.913 20.6874 168.997 23.7642C172.082 26.8545 173.766 30.9434 173.766 35.3157C173.766 39.688 172.069 43.7768 168.997 46.8671C165.818 50.0519 161.642 51.6443 157.466 51.6443ZM157.466 19.7023C153.303 19.7023 149.383 21.3216 146.447 24.277C143.496 27.2323 141.88 31.1458 141.88 35.3157C141.88 39.4855 143.496 43.4125 146.447 46.3543C152.522 52.4405 162.41 52.4405 168.499 46.3543C171.449 43.399 173.066 39.4855 173.066 35.3157C173.066 31.1458 171.449 27.2188 168.499 24.277C165.549 21.3216 161.642 19.7023 157.48 19.7023H157.466Z" fill="#3863BE"/>
<path d="M143.996 51.2791L141.548 48.8267L126.384 64.0179L128.832 66.4703L143.996 51.2791Z" fill="#3863BE"/>
<defs>
<linearGradient id="paint0_linear_1259_1600" x1="203.297" y1="6.57636" x2="176.551" y2="200.981" gradientUnits="userSpaceOnUse">
<stop stop-color="#FFF3E6"/>
<stop offset="1" stop-color="#FFD8B5"/>
</linearGradient>
</defs>
</svg>
