<svg width="276" height="203" viewBox="0 0 276 203" fill="none" xmlns="http://www.w3.org/2000/svg">
<path d="M275.454 124.436C275.454 172.622 213.851 202.987 137.854 202.987C61.8563 202.987 4.66929 178.718 0.240225 124.436C-3.66777 76.4197 40.3232 0.344055 116.321 0.344055C192.318 0.344055 275.454 76.2504 275.454 124.436Z" fill="url(#paint0_linear_1259_1846)"/>
<path opacity="0.4" d="M0.0578613 115.734C25.043 115.382 52.2817 109.533 79.0515 97.6532C123.785 77.7875 156.977 45.6377 171.658 12.3025C153.642 4.82523 134.78 0.344055 116.321 0.344055C44.7653 0.344055 1.59501 67.7831 0.0578613 115.734Z" fill="white"/>
<path d="M157.98 125.986V198.675H185.583C237.325 188.84 274.399 162.721 275.415 125.986H157.98Z" fill="#F2994A"/>
<path d="M96.5463 120.046H12.876C12.6806 120.046 12.5374 119.89 12.5374 119.707V8.64185C12.5374 8.44645 12.6937 8.30316 12.876 8.30316H72.4991C72.5902 8.30316 72.6684 8.32921 72.7335 8.39435L96.7677 30.1619C96.8459 30.227 96.885 30.3182 96.885 30.4224V119.694C96.885 119.89 96.7286 120.033 96.5463 120.033V120.046ZM13.2278 119.355H96.2076V30.5657L72.3688 8.99357H13.2278V119.355Z" fill="#3863BE"/>
<path d="M96.5463 30.7613L72.5122 30.618C72.3168 30.618 72.1735 30.4616 72.1735 30.2793V8.64199C72.1735 8.51173 72.2516 8.38146 72.3819 8.32935C72.5122 8.27725 72.6554 8.3033 72.7597 8.39449L96.7938 30.162C96.8981 30.2532 96.9371 30.4095 96.885 30.5398C96.8329 30.6701 96.7027 30.7613 96.5594 30.7613H96.5463ZM72.8508 29.9275L95.6475 30.0708L72.8508 9.42359V29.9275Z" fill="#3863BE"/>
<path d="M59.4204 48.6599H20.7442C20.5488 48.6599 20.4055 48.5036 20.4055 48.3212C20.4055 48.1389 20.5618 47.9825 20.7442 47.9825H59.4334C59.6288 47.9825 59.7721 48.1389 59.7721 48.3212C59.7721 48.5036 59.6158 48.6599 59.4334 48.6599H59.4204Z" fill="#3863BE"/>
<path d="M59.4204 56.0721H20.7442C20.5488 56.0721 20.4055 55.9158 20.4055 55.7334C20.4055 55.551 20.5618 55.3947 20.7442 55.3947H59.4334C59.6288 55.3947 59.7721 55.551 59.7721 55.7334C59.7721 55.9158 59.6158 56.0721 59.4334 56.0721H59.4204Z" fill="#3863BE"/>
<path d="M59.4204 63.4843H20.7442C20.5488 63.4843 20.4055 63.3279 20.4055 63.1456C20.4055 62.9632 20.5618 62.8069 20.7442 62.8069H59.4334C59.6288 62.8069 59.7721 62.9632 59.7721 63.1456C59.7721 63.3279 59.6158 63.4843 59.4334 63.4843H59.4204Z" fill="#3863BE"/>
<path d="M59.4204 70.8834H20.7442C20.5488 70.8834 20.4055 70.7271 20.4055 70.5447C20.4055 70.3623 20.5618 70.206 20.7442 70.206H59.4334C59.6288 70.206 59.7721 70.3623 59.7721 70.5447C59.7721 70.7271 59.6158 70.8834 59.4334 70.8834H59.4204Z" fill="#3863BE"/>
<path d="M59.4204 78.2956H20.7442C20.5488 78.2956 20.4055 78.1392 20.4055 77.9569C20.4055 77.7745 20.5618 77.6182 20.7442 77.6182H59.4334C59.6288 77.6182 59.7721 77.7745 59.7721 77.9569C59.7721 78.1392 59.6158 78.2956 59.4334 78.2956H59.4204Z" fill="#3863BE"/>
<path d="M80.4974 48.6599H70.4538C70.2584 48.6599 70.1151 48.5036 70.1151 48.3212C70.1151 48.1389 70.2714 47.9825 70.4538 47.9825H80.4974C80.6928 47.9825 80.8361 48.1389 80.8361 48.3212C80.8361 48.5036 80.6797 48.6599 80.4974 48.6599Z" fill="#3863BE"/>
<path d="M80.4974 56.0721H70.4538C70.2584 56.0721 70.1151 55.9158 70.1151 55.7334C70.1151 55.551 70.2714 55.3947 70.4538 55.3947H80.4974C80.6928 55.3947 80.8361 55.551 80.8361 55.7334C80.8361 55.9158 80.6797 56.0721 80.4974 56.0721Z" fill="#3863BE"/>
<path d="M80.4974 63.4843H70.4538C70.2584 63.4843 70.1151 63.3279 70.1151 63.1456C70.1151 62.9632 70.2714 62.8069 70.4538 62.8069H80.4974C80.6928 62.8069 80.8361 62.9632 80.8361 63.1456C80.8361 63.3279 80.6797 63.4843 80.4974 63.4843Z" fill="#3863BE"/>
<path d="M80.4974 70.8834H70.4538C70.2584 70.8834 70.1151 70.7271 70.1151 70.5447C70.1151 70.3623 70.2714 70.206 70.4538 70.206H80.4974C80.6928 70.206 80.8361 70.3623 80.8361 70.5447C80.8361 70.7271 80.6797 70.8834 80.4974 70.8834Z" fill="#3863BE"/>
<path d="M80.4974 78.2956H70.4538C70.2584 78.2956 70.1151 78.1392 70.1151 77.9569C70.1151 77.7745 70.2714 77.6182 70.4538 77.6182H80.4974C80.6928 77.6182 80.8361 77.7745 80.8361 77.9569C80.8361 78.1392 80.6797 78.2956 80.4974 78.2956Z" fill="#3863BE"/>
<path d="M56.7499 25.277H22.1121C21.3566 25.277 20.7443 25.8894 20.7443 26.6448V30.4877C20.7443 31.2431 21.3566 31.8555 22.1121 31.8555H56.7499C57.5054 31.8555 58.1177 31.2431 58.1177 30.4877V26.6448C58.1177 25.8894 57.5054 25.277 56.7499 25.277Z" fill="#FACEAC"/>
<path d="M47.1623 100.18H21.9167C21.2692 100.18 20.7443 100.705 20.7443 101.353V105.586C20.7443 106.234 21.2692 106.759 21.9167 106.759H47.1623C47.8098 106.759 48.3347 106.234 48.3347 105.586V101.353C48.3347 100.705 47.8098 100.18 47.1623 100.18Z" fill="#FACEAC"/>
<path d="M137.854 202.974C175.97 202.974 210.464 195.34 235.384 181.636C227.738 157.654 217.03 125.465 213.812 122.821C208.654 118.574 172.531 96.4157 161.914 95.2042C151.297 93.9927 109.403 105.222 97.8749 108.257C86.3463 111.292 68.7343 119.186 68.7343 119.186L71.7695 82.4641H53.2586C53.2586 82.4641 26.2413 125.869 27.4658 129.803C28.6773 133.75 97.2757 179.877 97.2757 179.877L96.0772 200.186C109.13 202.049 123.134 202.974 137.854 202.974Z" fill="white"/>
<path d="M129.399 67.3141C129.399 67.3141 129.777 70.688 136.186 71.183C141.228 72.642 142.804 76.9148 142.804 76.9148L144.484 57.5571C144.484 57.5571 128.93 56.5411 129.399 67.3141Z" fill="#1B315F"/>
<path d="M147.806 141.214L147.676 140.641C147.415 139.443 141.332 111.032 145.448 100.545L146.087 100.793C142.361 110.276 147.363 135.717 148.223 139.912C151.845 136.642 176.335 114.392 177.715 107.905C178.25 105.404 178.041 103.424 177.103 102.017C176.113 100.519 174.628 100.219 174.615 100.219L174.745 99.5421C174.824 99.5551 176.53 99.8938 177.676 101.639C178.719 103.203 178.953 105.365 178.38 108.048C176.856 115.226 149.396 139.781 148.223 140.824L147.78 141.214H147.806Z" fill="#7D9FD6"/>
<path d="M150.164 104.649C150.164 104.649 148.796 113.103 159.296 113.324C169.795 113.546 176.426 104.649 176.426 104.649L171.632 91.4005L150.164 104.649Z" fill="#D36318"/>
<path d="M141.475 59.1073C141.475 59.1073 137.841 72.0297 141.475 75.8465C138.935 79.6634 139.326 84.5744 139.678 87.4794C140.029 90.3843 146.751 107.111 149.109 108.192C151.467 109.273 160.559 109.651 161.653 108.192C162.748 106.733 174.732 95.4777 174.915 94.5659C175.097 93.654 174.915 89.2901 174.915 89.2901C174.915 89.2901 179.279 89.2249 180.008 88.3521C180.738 87.4794 185.101 79.6634 184.919 78.022C184.737 76.3806 180.92 74.0228 180.92 74.0228C180.92 74.0228 176.738 57.1272 174.745 56.7625C172.752 56.3978 147.845 50.5488 141.488 59.1073H141.475Z" fill="#F29F61"/>
<path d="M157.42 55.8637C157.641 55.3817 157.824 54.9388 157.98 54.5089C151.245 54.2875 144.406 55.1733 141.475 59.1073C141.475 59.1073 140.668 62.0253 140.186 65.4904C145.644 65.8551 153.355 64.5915 157.42 55.8767V55.8637Z" fill="#D36318"/>
<path d="M160.546 77.1232C160.546 76.6484 160.164 76.2634 159.693 76.2634C159.222 76.2634 158.84 76.6484 158.84 77.1232V81.0312C158.84 81.506 159.222 81.8909 159.693 81.8909C160.164 81.8909 160.546 81.506 160.546 81.0312V77.1232Z" fill="#1B315F"/>
<path d="M146.621 76.7063C146.621 76.2315 146.239 75.8466 145.768 75.8466C145.296 75.8466 144.914 76.2315 144.914 76.7063V80.6143C144.914 81.0891 145.296 81.4741 145.768 81.4741C146.239 81.4741 146.621 81.0891 146.621 80.6143V76.7063Z" fill="#1B315F"/>
<path opacity="0.4" d="M135.496 74.2443C135.496 74.2443 135.874 83.6626 137.658 84.1576C139.443 84.6526 148.848 84.1576 148.848 84.1576C148.848 84.1576 150.438 78.4129 151.936 78.2175C153.434 78.0221 154.319 78.0742 154.71 79.0902C155.101 80.1063 156.795 84.3921 156.795 84.3921L170.668 85.1997C170.668 85.1997 174.628 81.2006 174.732 80.9009C174.836 80.6013 175.553 74.2574 175.553 74.2574" fill="white"/>
<path d="M170.655 85.5254H170.629L156.755 84.7177C156.625 84.7177 156.508 84.6265 156.456 84.4963C156.456 84.4963 154.775 80.2105 154.372 79.1944C154.098 78.478 153.551 78.3347 151.962 78.5431C151.089 78.6603 149.799 81.9431 149.161 84.2357C149.122 84.379 148.992 84.4832 148.848 84.4832C148.457 84.4963 139.365 84.9783 137.554 84.4832C135.626 83.9492 135.196 75.8726 135.131 74.2573C135.131 74.0619 135.275 73.9056 135.457 73.8926C135.665 73.9186 135.809 74.0359 135.822 74.2182C136.004 78.7255 136.773 83.5453 137.737 83.8059C139.065 84.1706 145.266 83.9752 148.562 83.8059C148.966 82.425 150.333 78.0481 151.857 77.8527C153.225 77.6703 154.489 77.6182 154.997 78.9339C155.336 79.8197 156.651 83.1545 157.003 84.0273L170.499 84.8219C172.283 83.0243 174.224 80.9921 174.381 80.7185C174.433 80.471 174.902 76.5761 175.175 74.1922C175.201 74.0098 175.371 73.8535 175.553 73.8926C175.748 73.9186 175.879 74.088 175.853 74.2704C175.683 75.7684 175.11 80.6664 175.006 80.9791C174.98 81.0703 174.889 81.3569 170.863 85.4212C170.798 85.4863 170.707 85.5254 170.616 85.5254H170.655Z" fill="#7D9FD6"/>
<path d="M135.587 75.8335L170.603 75.3385L170.433 74.2313H135.496C135.496 74.2313 135.522 74.8696 135.587 75.8335Z" fill="white"/>
<path d="M171.202 72.629H134.91V74.2313H171.202V72.629Z" fill="#3863BE"/>
<path d="M171.202 74.2443L176.074 74.6221L176.269 72.629H171.202V74.2443Z" fill="#1B315F"/>
<path d="M170.603 83.402C170.407 83.402 170.264 83.2457 170.264 83.0634V76.2634C170.264 76.068 170.42 75.9247 170.603 75.9247C170.785 75.9247 170.941 76.0811 170.941 76.2634V83.0634C170.941 83.2588 170.785 83.402 170.603 83.402Z" fill="#7D9FD6"/>
<path d="M150.815 92.2992C149.943 92.2992 149.07 92.2471 148.405 92.0778C148.184 92.0257 147.884 91.8824 147.663 91.4916C146.556 89.5636 148.744 81.3568 149.448 78.8818C149.552 78.517 149.93 78.3086 150.294 78.3998C150.659 78.504 150.868 78.8818 150.763 79.2465C149.396 84.0924 148.301 89.7851 148.822 90.749C150.255 91.0617 153.004 90.8272 153.955 90.71C154.333 90.6579 154.671 90.9314 154.723 91.3092C154.776 91.687 154.502 92.0257 154.124 92.0778C154.02 92.0778 152.431 92.2862 150.802 92.2862L150.815 92.2992Z" fill="#D36318"/>
<path d="M172.531 85.1736H175.527L176.413 78.6603L181.858 73.4366V62.7548C181.858 62.7548 178.328 59.433 178.562 59.1073C178.797 58.7816 180.386 57.6353 180.047 55.8116C179.708 53.9878 172.817 46.1327 160.546 43.8661C148.288 41.5864 147.832 49.676 143.507 49.676C139.182 49.676 134.519 50.7051 132.357 53.6622C130.194 56.6192 128.149 62.4291 129.399 67.3141C131.34 60.0322 136.877 59.1203 145.774 60.1494C154.671 61.1785 157.511 57.987 157.511 57.987C157.511 57.987 174.693 59.0161 175.032 61.0613C175.371 63.1065 172.192 70.6229 172.192 70.6229L174.354 73.632L172.531 85.1867V85.1736Z" fill="#3863BE"/>
<path d="M162.161 182.522C162.031 182.522 161.901 182.444 161.849 182.326C159.191 176.712 156.299 169.652 156.273 169.586C156.247 169.521 156.234 169.443 156.26 169.365L158.944 159.426C158.996 159.243 159.178 159.126 159.361 159.178C159.543 159.23 159.66 159.413 159.608 159.608L156.951 169.443C157.316 170.342 159.921 176.647 162.357 181.818C167.294 181.193 180.542 172.765 182.613 167.255C184.528 162.135 183.616 151.102 183.499 149.747L175.488 142.791L166.903 144.745C166.721 144.797 166.538 144.666 166.486 144.484C166.447 144.302 166.565 144.119 166.747 144.067L175.501 142.074C175.605 142.048 175.722 142.074 175.8 142.152L184.046 149.317C184.111 149.369 184.15 149.46 184.164 149.538C184.216 150.046 185.336 161.914 183.252 167.489C181.037 173.416 167.164 182.131 162.175 182.522H162.148H162.161Z" fill="#7D9FD6"/>
<path d="M114.237 94.4227L132.213 156.104L139.886 153.968L121.909 92.2863" fill="white"/>
<path d="M132.213 156.39C132.083 156.39 131.966 156.312 131.927 156.182L113.95 94.5139C113.898 94.3575 113.989 94.1882 114.145 94.1491C114.302 94.11 114.471 94.2012 114.51 94.3445L132.409 155.739L139.508 153.759L121.61 92.3775C121.558 92.2212 121.649 92.0518 121.805 92.0127C121.961 91.9737 122.131 92.0648 122.17 92.2081L140.147 153.876C140.173 153.954 140.16 154.033 140.121 154.098C140.081 154.163 140.016 154.215 139.938 154.241L132.266 156.377C132.266 156.377 132.213 156.377 132.187 156.377L132.213 156.39Z" fill="#7D9FD6"/>
<path d="M118.445 94.7481C120.566 94.1579 122.112 93.0558 121.898 92.2865C121.684 91.5171 119.791 91.3719 117.67 91.962C115.549 92.5522 114.004 93.6543 114.218 94.4237C114.432 95.193 116.325 95.3383 118.445 94.7481Z" fill="white"/>
<path d="M116.047 95.3996C114.979 95.3996 114.132 95.1391 113.95 94.5008C113.65 93.4195 115.604 92.2341 117.597 91.687C118.652 91.3874 119.695 91.2571 120.528 91.3223C121.727 91.4134 122.092 91.8563 122.183 92.2081C122.482 93.2893 120.528 94.4747 118.535 95.0218C117.702 95.2563 116.816 95.3866 116.047 95.3866V95.3996ZM120.098 91.9085C119.408 91.9085 118.6 92.0257 117.767 92.2602C115.604 92.8594 114.406 93.9015 114.523 94.3575C114.653 94.8004 116.217 95.0739 118.379 94.4747C120.541 93.8755 121.753 92.8334 121.623 92.3774C121.57 92.195 121.245 91.9866 120.489 91.9215C120.359 91.9215 120.229 91.9085 120.098 91.9085Z" fill="#7D9FD6"/>
<path d="M139.048 152.924L131.907 154.911C130.999 155.163 130.468 156.104 130.72 157.012C130.973 157.92 131.914 158.451 132.822 158.199L139.963 156.212C140.871 155.959 141.402 155.018 141.149 154.11C140.897 153.202 139.956 152.671 139.048 152.924Z" fill="#1B315F"/>
<path d="M161.367 165.509C161.367 165.509 173.716 167.945 173.729 147.441L167.541 140.563L164.194 127.536C164.194 127.536 149.487 122.664 148.015 122.456C146.543 122.248 136.277 120.828 134.91 121.44C133.542 122.052 131.51 123.667 131.51 123.667C131.51 123.667 122.782 121.844 121.961 123.264C121.141 124.684 119.317 130.572 120.541 132.2C121.766 133.828 125.413 135.248 125.413 135.248C125.413 135.248 122.977 142.087 127.237 143.442C131.497 144.797 138.779 146.816 139.404 149.46C140.029 152.105 142.986 156.56 148.001 158.397C153.017 160.22 161.354 165.496 161.354 165.496L161.367 165.509Z" fill="#3863BE"/>
<path d="M153.056 130.181C153.056 130.181 152.991 130.181 152.952 130.181C152.704 130.129 146.842 128.93 144.211 127.341C141.749 125.843 131.536 124.215 131.432 124.202C131.145 124.162 130.963 123.889 131.002 123.602C131.041 123.316 131.301 123.133 131.588 123.172C132.018 123.238 142.113 124.853 144.745 126.455C147.22 127.966 153.095 129.152 153.147 129.165C153.421 129.217 153.603 129.49 153.551 129.777C153.499 130.024 153.29 130.194 153.043 130.194L153.056 130.181Z" fill="#1B315F"/>
<path d="M144.38 134.766C144.289 134.766 144.198 134.74 144.12 134.688C144.067 134.662 138.922 131.601 136.877 130.519C135.222 129.647 124.163 127.315 120.046 126.494C119.773 126.442 119.59 126.169 119.642 125.882C119.695 125.608 119.968 125.426 120.255 125.478C120.867 125.595 135.235 128.487 137.359 129.608C139.43 130.689 144.445 133.672 144.654 133.802C144.901 133.945 144.979 134.271 144.836 134.506C144.745 134.662 144.562 134.753 144.393 134.753L144.38 134.766Z" fill="#1B315F"/>
<path d="M139.677 140.133C139.677 140.133 139.612 140.133 139.573 140.133C139.547 140.133 137.228 139.638 136.277 139.547C135.274 139.443 126.924 136.355 125.257 135.743C124.983 135.639 124.853 135.352 124.957 135.079C125.062 134.805 125.361 134.675 125.622 134.779C129.425 136.186 135.704 138.453 136.382 138.518C137.398 138.622 139.69 139.104 139.795 139.117C140.068 139.169 140.251 139.456 140.199 139.729C140.146 139.977 139.938 140.146 139.69 140.146L139.677 140.133Z" fill="#1B315F"/>
<path d="M218.632 180.724C218.528 180.724 218.424 180.672 218.358 180.581C216.548 178.145 214.542 175.67 212.757 173.494C210.464 170.668 208.484 168.232 207.729 166.864C205.644 163.034 184.177 153.876 183.955 153.785C183.786 153.707 183.695 153.512 183.773 153.329C183.851 153.16 184.046 153.069 184.229 153.147C185.127 153.525 206.126 162.487 208.328 166.538C209.057 167.867 211.011 170.277 213.291 173.065C215.076 175.253 217.095 177.728 218.906 180.177C219.023 180.333 218.984 180.542 218.84 180.659C218.775 180.711 218.71 180.724 218.632 180.724Z" fill="#7D9FD6"/>
<path d="M178.354 196.187C178.262 196.187 178.158 196.148 178.093 196.07C172.335 189.374 167.19 180.646 167.138 180.568C167.046 180.399 167.099 180.19 167.255 180.099C167.424 180.008 167.633 180.06 167.724 180.216C167.776 180.307 172.895 188.97 178.614 195.627C178.744 195.77 178.718 195.991 178.575 196.109C178.51 196.161 178.432 196.187 178.354 196.187Z" fill="#7D9FD6"/>
<path d="M194.676 158.644C194.676 158.644 194.65 158.644 194.624 158.644C194.429 158.618 194.298 158.449 194.324 158.253C194.416 157.55 196.656 140.876 197.203 139.495C197.75 138.127 209.67 124.944 211.025 123.446C211.155 123.303 211.376 123.29 211.507 123.42C211.637 123.55 211.663 123.772 211.533 123.902C206.231 129.751 198.219 138.791 197.829 139.742C197.399 140.824 195.627 153.538 194.989 158.344C194.963 158.514 194.819 158.644 194.65 158.644H194.676Z" fill="#7D9FD6"/>
<path d="M103.007 188.957C102.89 188.957 102.773 188.892 102.708 188.775C98.6957 181.532 96.8329 168.18 97.1716 149.056C97.4191 134.844 98.852 122.586 98.865 122.469C98.8911 122.274 99.0604 122.13 99.2428 122.169C99.4382 122.195 99.5685 122.365 99.5424 122.547C99.4903 123.029 93.8758 171.41 103.307 188.436C103.398 188.605 103.333 188.814 103.177 188.905C103.125 188.931 103.073 188.944 103.007 188.944V188.957Z" fill="#7D9FD6"/>
<path d="M51.3828 130.975C49.8847 130.975 48.2303 130.819 46.4457 130.467C46.2633 130.428 46.133 130.246 46.1721 130.064C46.2112 129.881 46.3936 129.764 46.5759 129.79C61.6608 132.786 65.5818 121.661 65.7382 121.192C65.8033 121.01 65.9987 120.906 66.168 120.971C66.3504 121.036 66.4416 121.231 66.3895 121.401C66.3504 121.505 63.0416 130.975 51.3828 130.975Z" fill="#7D9FD6"/>
<path d="M83.0245 59.3027L104.154 83.5062L106.72 84.4181L110.719 88.5084L112.152 87.0364L108.088 82.3338L107.945 80.5231L85.5517 55.1342" fill="white"/>
<path d="M110.719 88.795C110.641 88.795 110.563 88.769 110.511 88.7039L106.564 84.6656L104.063 83.7798C104.063 83.7798 103.971 83.7277 103.932 83.6886L82.8031 59.4851C82.6989 59.3678 82.7119 59.1724 82.8291 59.0682C82.9464 58.964 83.1418 58.977 83.246 59.0943L104.323 83.2457L106.824 84.1315C106.824 84.1315 106.902 84.1706 106.941 84.2097L110.719 88.0786L111.748 87.0234L107.866 82.5292C107.866 82.5292 107.801 82.425 107.801 82.3599L107.671 80.6404L85.3433 55.3296C85.2391 55.2123 85.2521 55.0169 85.3693 54.9127C85.4866 54.8085 85.682 54.8215 85.7862 54.9388L108.179 80.3277C108.179 80.3277 108.244 80.4319 108.257 80.4971L108.387 82.2166L112.387 86.841C112.491 86.9583 112.478 87.1276 112.387 87.2449L110.954 88.7039C110.954 88.7039 110.823 88.795 110.745 88.795H110.719Z" fill="#7D9FD6"/>
<path d="M76.1636 47.8702C78.1663 46.1634 81.178 46.4036 82.8849 48.4063L88.0308 54.4441C89.2729 55.9016 89.0971 58.1053 87.6397 59.3474L85.6767 61.0204C84.2192 62.2625 82.0155 62.0868 80.7734 60.6294L75.6275 54.5915C73.9207 52.5888 74.1609 49.5771 76.1636 47.8702Z" fill="#1B315F"/>
<path d="M71.3395 87.2709L72.4989 78.6603L74.5832 76.9669L79.1034 65.0344C79.1034 65.0344 84.0796 63.6406 83.7409 60.9831C83.4022 58.3257 81.3049 57.3878 81.3049 57.3878C81.3049 57.3878 83.8581 54.0269 82.816 52.6461C81.7739 51.2653 71.1181 45.9243 70.3104 46.0416C69.5028 46.1588 54.9129 51.9426 54.3267 52.8675C53.7405 53.7924 51.2003 62.0123 51.2003 64.0965C51.2003 66.1808 53.4018 85.4081 53.4018 85.4081C53.4018 85.4081 64.9825 93.2762 71.3526 87.2579L71.3395 87.2709Z" fill="#3863BE"/>
<path d="M73.4631 81.474C73.4631 81.474 60.6318 90.0456 51.0442 78.6603L45.2473 85.343C45.2473 85.343 51.4089 98.2524 61.3613 98.9688C71.3137 99.6853 73.4631 95.5298 73.4631 95.5298V81.474Z" fill="white"/>
<path d="M63.6148 99.3466C62.8983 99.3466 62.1428 99.3206 61.3351 99.2554C57.1796 98.9558 53.0371 96.4677 49.3376 92.0647C46.5629 88.756 44.9867 85.4863 44.9736 85.4602C44.9215 85.356 44.9346 85.2257 45.0127 85.1345L50.8096 78.4519C50.8096 78.4519 50.9529 78.3477 51.031 78.3477C51.1222 78.3477 51.2004 78.3867 51.2525 78.4519C60.5666 89.4985 73.1633 81.2917 73.2936 81.2135C73.3848 81.1484 73.502 81.1484 73.5932 81.2005C73.6844 81.2526 73.7495 81.3568 73.7495 81.461V95.5168C73.7495 95.5168 73.7495 95.608 73.7105 95.6471C73.6323 95.8034 71.7174 99.3336 63.6018 99.3336L63.6148 99.3466ZM45.5989 85.382C46.3805 86.9062 52.3337 98.0179 61.3872 98.6692C70.3496 99.3076 72.8637 95.9206 73.1764 95.4386V81.9821C70.7925 83.3629 59.6417 88.9774 51.0441 79.1032L45.5989 85.369V85.382Z" fill="#7D9FD6"/>
<path d="M65.4776 81.891H65.4255C65.1389 81.891 64.9175 81.6435 64.9175 81.3569C64.9175 81.0703 65.152 80.8488 65.4385 80.8488C65.4385 80.8488 65.4385 80.8488 65.4646 80.8488C65.6861 80.8488 69.086 80.7967 72.1733 78.2565C72.3948 78.0742 72.7204 78.1002 72.9028 78.3217C73.0852 78.5431 73.0591 78.8688 72.8377 79.0512C69.5289 81.7868 65.9726 81.891 65.4907 81.891H65.4776Z" fill="#1B315F"/>
<path d="M67.4316 71.4827C66.0508 71.4827 63.2631 70.6099 58.1957 68.6559C57.8049 68.4995 57.5053 68.3823 57.3359 68.3302C57.0754 68.6168 56.6976 69.8022 56.5022 70.9486C56.4501 71.2351 56.1896 71.4305 55.903 71.3654C55.6164 71.3133 55.4341 71.0528 55.4862 70.7662C55.6295 69.9064 56.0593 67.8612 56.854 67.3923C57.0754 67.262 57.3229 67.236 57.5444 67.3011C57.6877 67.3532 58.0524 67.4835 58.5735 67.6919C65.3343 70.3103 67.2623 70.6229 67.6921 70.4405C68.4737 69.8413 69.555 67.8091 69.9067 67.0796C70.0239 66.8191 70.3366 66.7149 70.5971 66.8321C70.8576 66.9494 70.9618 67.262 70.8446 67.5225C70.7013 67.8091 69.4507 70.4014 68.3174 71.2742C68.135 71.4175 67.8485 71.4957 67.4446 71.4957L67.4316 71.4827Z" fill="#1B315F"/>
<path d="M72.4079 68.3822C70.3366 68.3822 66.7152 66.0244 61.6348 61.3609L61.4785 61.2176C61.0486 60.8268 59.0295 60.9701 57.4272 61.3348C57.1537 61.3869 56.8671 61.2176 56.8019 60.944C56.7368 60.6705 56.9192 60.3839 57.1927 60.3187C58.1046 60.1103 61.1528 59.5111 62.1689 60.436L62.3383 60.5923C69.8677 67.5095 72.2125 67.4704 72.7596 67.288C75.0783 66.5325 75.1174 62.7417 75.1174 62.7026C75.1174 62.416 75.3519 62.1816 75.6385 62.1816C75.9251 62.1816 76.1595 62.416 76.1595 62.7026C76.1595 62.885 76.1205 67.275 73.0853 68.265C72.8899 68.3301 72.6554 68.3692 72.4209 68.3692L72.4079 68.3822Z" fill="#1B315F"/>
<path d="M77.6186 64.2399C77.5274 64.2399 77.4231 64.2138 77.345 64.1617C76.2768 63.4843 66.8585 57.5051 66.0769 56.6062C65.6471 56.1112 64.4225 56.3457 64.0187 56.4629C63.7452 56.5411 63.4586 56.3978 63.3674 56.1243C63.2762 55.8507 63.4325 55.5641 63.7061 55.4729C63.9275 55.4078 65.8946 54.8476 66.8455 55.9289C67.3666 56.5151 73.8929 60.7617 77.8921 63.2889C78.1396 63.4452 78.2047 63.7579 78.0484 64.0054C77.9442 64.1617 77.7879 64.2399 77.6055 64.2399H77.6186Z" fill="#1B315F"/>
<path d="M79.7679 57.3357C79.6898 57.3357 79.6246 57.3227 79.5595 57.2836C77.3319 56.2806 72.004 51.3305 71.7696 51.122C71.5611 50.9266 71.5481 50.601 71.7435 50.3925C71.9389 50.1841 72.2646 50.1711 72.473 50.3665C72.5251 50.4186 77.9051 55.4078 79.9763 56.3457C80.2369 56.463 80.3541 56.7756 80.2369 57.0361C80.1457 57.2315 79.9633 57.3357 79.7679 57.3357Z" fill="#1B315F"/>
<path d="M68.1221 75.7554C67.8616 75.7554 67.6401 75.573 67.6141 75.3125C67.1712 72.0819 64.631 70.9486 64.5268 70.8965C64.2662 70.7792 64.149 70.4796 64.2532 70.2191C64.3704 69.9585 64.6701 69.8413 64.9306 69.9455C65.0609 69.9976 68.1091 71.3394 68.6432 75.1692C68.6823 75.4558 68.4869 75.7163 68.2003 75.7554C68.1742 75.7554 68.1482 75.7554 68.1351 75.7554H68.1221Z" fill="#1B315F"/>
<path d="M230.168 60.3596L225.82 64.7073C224.731 65.7959 224.731 67.561 225.82 68.6497L242.197 85.0273C243.286 86.1159 245.051 86.1159 246.14 85.0273L250.488 80.6796C251.576 79.5909 251.576 77.8258 250.488 76.7371L234.11 60.3596C233.021 59.2709 231.256 59.2709 230.168 60.3596Z" fill="#3963BE"/>
<path d="M207.936 38.136L203.588 42.4838C202.499 43.5724 202.499 45.3375 203.588 46.4262L219.965 62.8037C221.054 63.8924 222.819 63.8924 223.908 62.8037L228.256 58.456C229.344 57.3674 229.344 55.6023 228.256 54.5136L211.878 38.136C210.789 37.0474 209.024 37.0474 207.936 38.136Z" fill="#D3DEF1"/>
<path d="M213.272 40.5231L205.977 47.8184C204.145 49.6498 204.145 52.619 205.977 54.4504L233.481 81.9552C235.313 83.7866 238.282 83.7866 240.114 81.9552L247.409 74.6599C249.24 72.8285 249.24 69.8592 247.409 68.0278L219.904 40.5231C218.073 38.6917 215.103 38.6917 213.272 40.5231Z" fill="#7D9FD6"/>
<path d="M246.563 66.2782L231.714 81.1267C230.814 82.0271 230.814 83.487 231.714 84.3875L234.8 87.4732C235.7 88.3737 237.16 88.3737 238.061 87.4732L252.909 72.6247C253.81 71.7243 253.81 70.2644 252.909 69.3639L249.824 66.2782C248.923 65.3777 247.463 65.3777 246.563 66.2782Z" fill="#7D9FD6"/>
<path d="M216.951 74.1531C221.772 74.1531 225.679 70.2455 225.679 65.4252C225.679 60.605 221.772 56.6974 216.951 56.6974C212.131 56.6974 208.224 60.605 208.224 65.4252C208.224 70.2455 212.131 74.1531 216.951 74.1531Z" fill="#3963BE"/>
<path d="M216.951 71.3264C220.211 71.3264 222.853 68.6844 222.853 65.4253C222.853 62.1662 220.211 59.5242 216.951 59.5242C213.692 59.5242 211.05 62.1662 211.05 65.4253C211.05 68.6844 213.692 71.3264 216.951 71.3264Z" fill="#D3DEF1"/>
<path d="M253.622 106.173H234.902V123.628H253.622V106.173Z" fill="#7D9FD6"/>
<path d="M260.226 120.476H228.285V124.631H260.226V120.476Z" fill="#7D9FD6"/>
<path d="M265.697 123.641H222.813V128.8H265.697V123.641Z" fill="#3963BE"/>
<path d="M245.636 103.007C241.845 105.873 237.13 107.58 232.01 107.58C219.544 107.58 209.396 97.4318 209.396 84.9652C209.396 78.1393 212.444 72.0037 217.238 67.8612L212.822 62.4031C206.426 67.8482 202.362 75.9378 202.362 84.9652C202.362 101.301 215.662 114.601 231.997 114.601C238.784 114.601 245.024 112.308 250.026 108.465L245.61 103.007H245.636Z" fill="#D3DEF1"/>
<path d="M268.511 96.3636H220C218.316 96.3636 216.951 97.7254 216.951 99.4053C216.951 101.085 218.316 102.447 220 102.447H268.511C270.194 102.447 271.559 101.085 271.559 99.4053C271.559 97.7254 270.194 96.3636 268.511 96.3636Z" fill="#D3DEF1"/>
<path d="M267.742 102.447H220.781V109.911H267.742V102.447Z" fill="#7D9FD6"/>
<defs>
<linearGradient id="paint0_linear_1259_1846" x1="137.724" y1="0.344055" x2="137.724" y2="202.974" gradientUnits="userSpaceOnUse">
<stop stop-color="#FFF3E6"/>
<stop offset="1" stop-color="#FFD8B5"/>
</linearGradient>
</defs>
</svg>
